/* XPM */
static char *bitcoin32_xpm[] = {
/* width height num_colors chars_per_pixel */
"    32    32      256            2",
/* colors */
"`` c #5c0204",
"`. c #ac8284",
"`# c #a44244",
"`a c #9c0204",
"`b c #9c2624",
"`c c #bc0204",
"`d c #74221c",
"`e c #7c0204",
"`f c #9c120c",
"`g c #7c120c",
"`h c #ccc2c4",
"`i c #9c6264",
"`j c #bc1614",
"`k c #ac120c",
"`l c #ac0204",
"`m c #8c0204",
"`n c #e4e2e4",
"`o c #bc9e9c",
"`p c #8c120c",
"`q c #9c5a5c",
"`r c #9c1a14",
"`s c #cc1214",
"`t c #6c1214",
"`u c #c4665c",
"`v c #ac0a0c",
"`w c #9c0a0c",
"`x c #bc0a0c",
"`y c #7c0a0c",
"`z c #ac1a14",
"`A c #8c0a04",
"`B c #9c3234",
"`C c #dcd6d4",
"`D c #ac423c",
"`E c #a4120c",
"`F c #7c1a1c",
"`G c #a47674",
"`H c #f4f2f4",
"`I c #d4aeac",
"`J c #6c0204",
"`K c #bc1a14",
"`L c #cc827c",
"`M c #b4120c",
"`N c #bcb2b4",
"`O c #8c1a14",
"`P c #cc020c",
"`Q c #b40204",
"`R c #ecdad4",
"`S c #740a04",
"`T c #a40204",
"`U c #bc221c",
"`V c #84120c",
"`W c #a46a6c",
"`X c #f4eeec",
"`Y c #cc1a14",
"`Z c #840a04",
"`0 c #940a0c",
"`1 c #c4020c",
"`2 c #943e3c",
"`3 c #840204",
"`4 c #9c121c",
"`5 c #940204",
"`6 c #c4a2a4",
"`7 c #b45654",
"`8 c #a41a14",
".` c #6c1a1c",
".. c #b40a0c",
".# c #a40a0c",
".a c #b44a44",
".b c #b49694",
".c c #9c4e4c",
".d c #a42a24",
".e c #8c2624",
".f c #a46264",
".g c #c41214",
".h c #ac121c",
".i c #94120c",
".j c #c40a0c",
".k c #9c3a34",
".l c #e4dedc",
".m c #b4423c",
".n c #a4121c",
".o c #c41a1c",
".p c #740a14",
".q c #bc0604",
".r c #9c160c",
".s c #7c161c",
".t c #ecc6c4",
".u c #ac0604",
".v c #eceaec",
".w c #ac5a54",
".x c #d4121c",
".y c #b41a1c",
".z c #8c0e14",
".A c #e4dadc",
".B c #841a1c",
".C c #a47a7c",
".D c #fcfafc",
".E c #d49a94",
".F c #b4161c",
".G c #941a14",
".H c #b40604",
".I c #a40604",
".J c #840e14",
".K c #741a1c",
".L c #b48a8c",
".M c #9c0604",
".N c #a42224",
".O c #7c0604",
".P c #7c1614",
".Q c #d4cacc",
".R c #ac1614",
".S c #8c0604",
".T c #b4a6a4",
".U c #a45a5c",
".V c #9c1e1c",
".W c #cc1614",
".X c #bc7274",
".Y c #ac0e0c",
".Z c #9c0e0c",
".0 c #7c0e14",
".1 c #ac1e1c",
".2 c #8c0e0c",
".3 c #a43234",
".4 c #dcdad4",
".5 c #a41614",
".6 c #740204",
".7 c #bc1e1c",
".8 c #dc8e84",
"#` c #b41614",
"#. c #e4b2ac",
"## c #84221c",
"#a c #c4b2ac",
"#b c #f4d6cc",
"#c c #fceae4",
"#d c #a44a44",
"#e c #c46e6c",
"#f c #ece6e4",
"#g c #ac7274",
"#h c #d4867c",
"#i c #ac6e6c",
"#j c #cca6a4",
"#k c #942224",
"#l c #dccecc",
"#m c #640204",
"#n c #b48284",
"#o c #741214",
"#p c #c4221c",
"#q c #bc5654",
"#r c #bc9694",
"#s c #ac7a7c",
"#t c #bca6a4",
"#u c #bc0e14",
"#v c #8c1e1c",
"#w c #740e0c",
"#x c #841614",
"#y c #cc1e1c",
"#z c #840e0c",
"#A c #940e0c",
"#B c #840604",
"#C c #940604",
"#D c #a41e14",
"#E c #b40e0c",
"#F c #a40e0c",
"#G c #a42e2c",
"#H c #a46664",
"#I c #c41614",
"#J c #941614",
"#K c #c40e14",
"#L c #9c3e3c",
"#M c #b4463c",
"#N c #c4b6b4",
"#O c #fceeec",
"#P c #a44e4c",
"#Q c #a44644",
"#R c #9c6664",
"#S c #9c5e5c",
"#T c #9c3634",
"#U c #7c1e1c",
"#V c #f4f6f4",
"#W c #cc060c",
"#X c #c4060c",
"#Y c #9c161c",
"#Z c #c4a6a4",
"#0 c #6c1e1c",
"#1 c #ac161c",
"#2 c #a4161c",
"#3 c #c41e1c",
"#4 c #740e14",
"#5 c #eceeec",
"#6 c #841e1c",
"#7 c #fcfefc",
"#8 c #741e1c",
"a` c #a42624",
"a. c #740604",
"a# c #942624",
"aa c #bc020c",
"ab c #9c1214",
"ac c #7c1214",
"ad c #bc161c",
"ae c #ac1214",
"af c #ac020c",
"ag c #8c1214",
"ah c #9c1a1c",
"ai c #7c0a14",
"aj c #ac1a1c",
"ak c #8c0a0c",
"al c #ac4244",
"am c #a41214",
"an c #bc1a1c",
"ao c #b41214",
"ap c #8c1a1c",
"aq c #b4020c",
"ar c #740a0c",
"as c #a4020c",
"at c #841214",
"au c #cc1a1c",
"av c #840a0c",
"aw c #84020c",
"ax c #c4121c",
"ay c #941214",
"az c #c40a14",
"aA c #bc060c",
"aB c #9c1614",
"aC c #ac060c",
"aD c #b4060c",
"aE c #a4060c",
"aF c #9c060c",
"aG c #7c060c",
"aH c #8c060c",
"aI c #cc161c",
"aJ c #ac0e14",
"aK c #9c0e14",
"aL c #dcdadc",
"aM c #f4d6d4",
"aN c #940e14",
"aO c #94060c",
"aP c #a41e1c",
"aQ c #b40e14",
"aR c #a40e14",
"aS c #a4666c",
"aT c #b44644",
"aU c #000000",
"aV c #000000",
"aW c #000000",
"aX c #000000",
"aY c #000000",
"aZ c #000000",
"a0 c #000000",
"a1 c #000000",
"a2 c #000000",
"a3 c #000000",
"a4 c #000000",
"a5 c #000000",
"a6 c #000000",
"a7 c #000000",
"a8 c #000000",
/* pixels */
"#7#7#7#7#7#7#7#7#7.D#Zalab`0`Za``7aB#A#J`D.E#c#7#7#7#7#7#7#7#7#7",
"#7#7#7#7#7#7#7#7.DaS`T`3.6`J#m.6..`g#m`J`J.6.m`R#7#7#7#7#7#7#7#7",
"#7#7#7#7#7#7.A#a.X.5`J`J`J.6`m`v.g`z.2.6`J#m#m.m#j.t#7#7#7#7#7#7",
"#7#7#7#7#7#j#G`5`m`E#A.M#A`v`1.HaD`vae`k`w.i`A`T`m`O`L#O#7#7#7#7",
"#7#7#7#7`o.#`3`J`Jaa#WaqaCaI.H`l`l`l`T`s..aEad#pa.#m.6`u#O#7#7#7",
"#7#7#7#N#2`3`J.6af`1`Q`l`l`Taf`l`Q`Q`laf`Q`l`T.RaB.6`J`J#h.D#7#7",
"#7#7.D#P.S`J`J`0`s`l`T`TaO#Cakak.2#A.#.u`Q`Q`Q`T#`#z.6#mavaM#7#7",
"#7#7.l`B`A.6`laz.g.I`a`aaF.M#CaO.2`V.P`O#F`Q`l`Taz`K#J`J.6#.#7#7",
"#7`H.Xam.YaQ#X`T`T`Tas`l`Q`Q`l`T`a`0.2ac.K.GaE`TaC`lae`z`a#M#b#7",
".D`..I`J`5`s`l`l`T`l`Q`Q`l`Q`l`Q`Q`l.I.2at#8#6#F`l`Q`aan#F#m#G#c",
".4aB#B#m.Y`x`l`Q`Q`Q`l`Q`l`Q`l`Q`l`Q`Q`lak.P#8#6`w`Q`l.##J`J`J.8",
".b#F.6`J#`.H`Q`l`l`Q`l`Q`l`Q`l`Q`laC`v.H`l#z.K`d`OaC`Q`v`f.6#m#G",
"aS#A`J`JaQ.W`l`Q`l`Q`l`Q`l`Q`l`TaRam#Y.V#E`l#o.K##aB`laz.5.6`J#k",
".c.2#maO#XaD`l`Q`l`Q`l`Q`Q`l`laK.F#2aK`w.u`Q.S.`.Pap.I`Q.F#z#m.e",
"#S.r`J#`..`l`Q`l`Q`l`Q`l`Tao#``j.y`v`T`l`Q`l.M`t.s#6`v`T.##D`S`b",
"#N`v`l`j.H`l`Q`l`Q`l`Q`l`0ad#3.o#p#E`Q`Q`l`T`warac#U.Y`Q.I.o..#q",
"#t.M.6.RaD`Q`l`Q`l`Q`l`l#Fan`Y#y#p#``l`Q`Q`T#AaGai#U`k`laCam`eaT",
"`q#A``.5`j`Q`l`Q`l`Q`Q`aam.o.o.o#p`j`l.#`l.IagaG.0#U`v.H#E#A#m.e",
"`q#A`J.6#K.W`Q`l`Q`l`QaO#1#``K#I.7`K.#.#`Q`0#Aa..0#xaE`s`x`e`J#k",
".C.r`J`J..`x`l`Q`l`Q`laH.n#`.F#`aRam.Y`Q`Tagak.p#4`4`laCaB`J`J`b",
"#N.5.O#maj.H`l`Q`l`Q`laHab.nam.1am`l`l`T.zagaiaiacaC`QaE`f.6.6aT",
".v`2`f#maK#I`l`Q`l`Q`l`mataKaK`4#2aBaK.z.J.0ai#4`w`Q`l#u`8#m`5`6",
"#7`N.V.#`a.o`x`l`l`Q`Q`aaiaNaNaNaN.z.z.J.Jai#4akaD`l`Q#K#``w.w#V",
"#7#7#taj`maG`K.j#u`Q`l`Q`m.pat.z.z.J.0.0.paiaH`l.g.jaAa.`3#e`X#7",
"#7#7`n#L`Z`Ja.aQ`s`l`Q`l`Q`m.p#4.0.0avaGaH`T`Q`T#u`v`e#m`3#j#7#7",
"#7#7.D#R.5.6#m.6an`x`l`Q`Q`l`aawaGac.z`0`T`Q`l`Q..`J`J`e.V#l#7#7",
"#7#7#7aL#T.r.6`J.Oan.g`Q.u.W.q`l`l`T`T.W`x`Q`Paz#B`J.6`a#r#7#7#7",
"#7#7#7#7`h`B.r#B.6`a#F`jaDax`j`c`Q`Qaa#u.gaqaf`Mav`3.M#n#7#7#7#7",
"#7#7#7#7#7`C`i#T#F`v`J`J.6.6aKao#K..aC`e`J`J#maEa``##j#7#7#7#7#7",
"#7#7#7#7#7#7#7.A`oah.i.6`J`J#m#m#E#w#m`J`J`e`a.w.Q`H#7#7#7#7#7#7",
"#7#7#7#7#7#7#7#7#7.T#T`E.Z`A`m`5.Y.r.S#C`aam#s#5#7#7#7#7#7#7#7#7",
"#7#7#7#7#7#7#7#7#7#7#f#t#H#Q#d.L`h`G.U#i`o`C#7#7#7#7#7#7#7#7#7#7"
};
