/* XPM */
static char *bitcoin64_xpm[] = {
/* width height num_colors chars_per_pixel */
"    64    64      256            2",
/* colors */
"`` c #520204",
"`. c #948684",
"`# c #744644",
"`a c #a40306",
"`b c #a4221a",
"`c c #6c221c",
"`d c #d40414",
"`e c #7c0305",
"`f c #a41313",
"`g c #c4c2bc",
"`h c #cc251e",
"`i c #7c1210",
"`j c #bc0306",
"`k c #aca4a4",
"`l c #bc443c",
"`m c #bc1412",
"`n c #a4342b",
"`o c #8c241c",
"`p c #941311",
"`q c #cc322c",
"`r c #940306",
"`s c #5c1214",
"`t c #d41418",
"`u c #e4e4e4",
"`v c #bc241b",
"`w c #b46a64",
"`x c #bc1c19",
"`y c #d48274",
"`z c #a40c0f",
"`A c #e42422",
"`B c #bc0c0e",
"`C c #7c0d0a",
"`D c #7c1c1b",
"`E c #e4a694",
"`F c #640204",
"`G c #846a6c",
"`H c #a41b19",
"`I c #94322c",
"`J c #f4121c",
"`K c #7c3438",
"`L c #e4c2b4",
"`M c #8c2a21",
"`N c #a49294",
"`O c #cc2c23",
"`P c #bc342b",
"`Q c #941d16",
"`R c #640b0c",
"`S c #a42e28",
"`T c #b4b2b0",
"`U c #ec0214",
"`V c #e4332c",
"`W c #940d11",
"`X c #d41b19",
"`Y c #f4f5f4",
"`Z c #d4d4d4",
"`0 c #cc1312",
"`1 c #b4736f",
"`2 c #b40204",
"`3 c #b41411",
"`4 c #cc040f",
"`5 c #6c1414",
"`6 c #9c4244",
"`7 c #7c231f",
"`8 c #8c140e",
".` c #d44a44",
".. c #cc1b19",
".# c #b40b0c",
".a c #8c0d12",
".b c #8c0306",
".c c #9c241d",
".d c #cc0c12",
".e c #8c1c18",
".f c #d40e14",
".g c #dc2420",
".h c #c41412",
".i c #9c1212",
".j c #cc3b2f",
".k c #bc2e24",
".l c #8c7674",
".m c #b49a9c",
".n c #6c1c1a",
".o c #ac1413",
".p c #c40406",
".q c #c4a6a1",
".r c #f4e5dc",
".s c #b41c18",
".t c #bc3a30",
".u c #d47264",
".v c #7c2c26",
".w c #ac0204",
".x c #d4c4c4",
".y c #84130e",
".z c #b4524c",
".A c #8c2527",
".B c #840d12",
".C c #740204",
".D c #740c0d",
".E c #b42d21",
".F c #a48684",
".G c #b4231f",
".H c #840306",
".I c #b4382e",
".J c #9c0306",
".K c #e41418",
".L c #c41b1b",
".M c #cc9e94",
".N c #ac0b0e",
".O c #c40c0e",
".P c #841c19",
".Q c #d8beba",
".R c #9c2c24",
".S c #dc2d27",
".T c #9c0d10",
".U c #e41a1c",
".V c #945858",
".W c #d42420",
".X c #b4aeac",
".Y c #c4251f",
".Z c #e42c2b",
".0 c #793e3f",
".1 c #a49d99",
".2 c #9c1c17",
".3 c #c4b2b4",
".4 c #dc1d20",
".5 c #5c0204",
".6 c #ac261f",
".7 c #e40314",
".8 c #bc161c",
"#` c #94151c",
"#. c #e4dad4",
"## c #d4524c",
"#a c #cc6254",
"#b c #9c6e6c",
"#c c #805454",
"#d c #a47674",
"#e c #c45a54",
"#f c #ec4234",
"#g c #ecb6ac",
"#h c #e0988c",
"#i c #ac5e5c",
"#j c #dcb2ac",
"#k c #8c3e3c",
"#l c #b47a7c",
"#m c #9c4e4c",
"#n c #cc7e74",
"#o c #cccbcc",
"#p c #ececec",
"#q c #d48e84",
"#r c #f4eae4",
"#s c #844e4c",
"#t c #946464",
"#u c #dc6a5c",
"#v c #8c5a5c",
"#w c #ec1d1f",
"#x c #ec0c18",
"#y c #fcfefc",
"#z c #dcdcdc",
"#A c #d4cecc",
"#B c #c5bdbc",
"#C c #cc4a3c",
"#D c #b45c58",
"#E c #dc332b",
"#F c #dc3a31",
"#G c #9c7674",
"#H c #c47e74",
"#I c #bca6a4",
"#J c #c46e64",
"#K c #e40c14",
"#L c #f4ded4",
"#M c #ac3a2c",
"#N c #ac4e54",
"#O c #ac6e6c",
"#P c #9c8a8c",
"#Q c #e43a30",
"#R c #bc9e9c",
"#S c #ccaea4",
"#T c #a48e8c",
"#U c #d46a5c",
"#V c #ac7e7c",
"#W c #e4beb4",
"#X c #b42e31",
"#Y c #ac3234",
"#Z c #843230",
"#0 c #942c25",
"#1 c #d42a26",
"#2 c #ac2b23",
"#3 c #842d24",
"#4 c #5c0a0c",
"#5 c #d45a54",
"#6 c #946a6c",
"#7 c #9c3229",
"#8 c #742424",
"a` c #ccc5c4",
"a. c #94241b",
"a# c #d43529",
"aa c #dc151c",
"ab c #ece4e0",
"ac c #ec2224",
"ad c #ecaa9c",
"ae c #6c0204",
"af c #ac1c16",
"ag c #ecc5b9",
"ah c #c43428",
"ai c #6c0a0f",
"aj c #bcb6b4",
"ak c #bc7470",
"al c #741411",
"am c #a44448",
"an c #84241f",
"ao c #d43a2c",
"ap c #c42b23",
"aq c #947a7c",
"ar c #bc9797",
"as c #741c1a",
"at c #c43d2f",
"au c #dc7569",
"av c #942224",
"aw c #ac8888",
"ax c #d49a8c",
"ay c #bcaaa4",
"az c #ac9c9c",
"aA c #cc564c",
"aB c #dc8c80",
"aC c #fceeec",
"aD c #f41a24",
"aE c #f40a18",
"aF c #dccac4",
"aG c #9c8484",
"aH c #a40614",
"aI c #a42424",
"aJ c #dc0314",
"aK c #a4131c",
"aL c #bc0214",
"aM c #b4a5a4",
"aN c #c4463c",
"aO c #641414",
"aP c #bc2224",
"aQ c #7c0c14",
"aR c #8c2e2c",
"aS c #ac9494",
"aT c #cc2e2c",
"aU c #ec322c",
"aV c #fcf6f4",
"aW c #dcd5d4",
"aX c #cc151c",
"aY c #b40614",
"aZ c #b4161c",
"a0 c #cc1d24",
"a1 c #b40b14",
"a2 c #dc0c14",
"a3 c #c4161c",
"a4 c #9c141c",
"a5 c #ac141c",
"a6 c #c40414",
"a7 c #7c2e34",
"a8 c #84141c",
/* pixels */
"#y#y#y#y#y#y#y#y#y#y#y#y#y#y#y#y#y#y#y#y#y#y#yaWar`1.z`laN#eax#r#yaWarakak#H.M.Qab#y#y#y#y#y#y#y#y#y#y#y#y#y#y#y#y#y#y#y#y#y#y#y",
"#y#y#y#y#y#y#y#y#y#y#y#y#y#y#y#y#y#y#y#yaVar#X`j`j`2`a`r.b`r.wah`1aY`j.w`a`a.w`B`x#a#jaV#y#y#y#y#y#y#y#y#y#y#y#y#y#y#y#y#y#y#y#y",
"#y#y#y#y#y#y#y#y#y#y#y#y#y#y#y#y#y#y#y.3#Y`j.w.b.Caeae`F`F`F``.J.p.N.Cae`F`F`F`F.C.b`2#C`L#y#y#y#y#y#y#y#y#y#y#y#y#y#y#y#y#y#y#y",
"#y#y#y#y#y#y#y#y#y#y#y#y#y#y#y#y#y#y#T`j`2.bae.C.C.C.C`e.C`e.5.b.p.Rae.C`e.C`e.Cae.5.5`e.#aB#y#y#y#y#y#y#y#y#y#y#y#y#y#y#y#y#y#y",
"#y#y#y#y#y#y#y#y#y#y#y#y#y#y#y#y#y#B`2.#`eae.C.C.C.C.C.C.C.C`F.w`2`P.D.C.C.C.C.C.C`e.C.5.5`2ad#y#y#y#y#y#y#y#y#y#y#y#y#y#y#y#y#y",
"#y#y#y#y#y#y#y#y#y#y#y#y#y#yab.xaF.V`B.yae.C.C.C.C`e.C.C.C.C`W`0`0`q`n`Cae.C.C.C.C.C.C`e.5`F`O.x.Q#.#y#y#y#y#y#y#y#y#y#y#y#y#y#y",
"#y#y#y#y#y#y#y#y#y#y#y#y.x#N`B.#`B`j`v.P.C.C.C.C.C.Cae.b.pa2.f.d.d`0`t`X`O.e.C.C.C.C.C.C.C.5`2`j.#`maA#W#y#y#y#y#y#y#y#y#y#y#y#y",
"#y#y#y#y#y#y#y#y#y#y#y#V`j`2`rae.5.J`j.Ial.C`e`W`8.D.H.7`4`a.J.J`r`r.b.HaY.Za.`e`p.y`eaeae`r`j.N`F`F.b`j`yaV#y#y#y#y#y#y#y#y#y#y",
"#y#y#y#y#y#y#y#y#yaC#m.p`a`eae.C`F`F`2.#`v`4a2`taX.W.f`0.w.w`2`2`2`2`2.w.H`r.Ka2`t`X.W.E`H`2`ja..Cae.5`F.J##.r#y#y#y#y#y#y#y#y#y",
"#y#y#y#y#y#y#y#y`Y`6`j.J.C.C.C.C.C```aaJaJ`j`a.J.H.J`J.Y.w`2.w.w.w.w`2`2`a`2aE`m`r.b.b.#`A.S`v.eae.C`eae``.b`q.r#y#y#y#y#y#y#y#y",
"#y#y#y#y#y#y#y#y.V.p.Tae.C.C.C.Cae`r.7`4.w.w`2`2.w`ea6`x.w`2.w`2`2.w`2.w.H.wa0`x`2`2.w.b`e`B#f`oae.C.C.C.C``.b.`aV#y#y#y#y#y#y#y",
"#y#y#y#y#y#y#y.F`j`f.C.C.C.C.Cae`a`U`j.w.w`2.w`2`2.J`a.w`2`2`2.w`2.w`2.w.w.J`r.w.w`2.w`2.w`e.J`V.e.C.C.C.C.C```rau#y#y#y#y#y#y#y",
"#y#y#y#y#y#y`ZaH`m.D.C.C.C.C.C.H.K`B.w.w`2.w`2`2.w.w`a.T.J.T.T.N.N`2`2`2`2`2`2.w`2.w`2.w`2`2.H.J#F`C.C.C.C.Cae.5`2ag#y#y#y#y#y#y",
"#y#y#y#y#y#y#t.O.e.C.C.C.C.C.5a1`X.w`2`2.w`a.J`r.b.a.b.b.b.b.H`C`C.y`8`f.#`2.w`2.w`2.w`2.w`2`2`ea3.cae.C.C.C`e.5`e#C#y#y#y#y#y#y",
"#y#y#y#y#y#p#`.s.C.C.C.C.C.H`W.f`O.w`a.J`r.J`a`a`a.J`W`W.a`8`p`p.i`W.a`Cal.e.o`2`2.w`2.w`2.w`2`r.w`O`Q`C.C.C.C.C``.##L#y#y#y#y#y",
"#y#y#y#y#y#o.J#2ae.C.Cae`a.7.d`d#w.Y`r`a.w.J.b.b.b.b`r.J.J`r`r.H`ealas.e.2.B`5`o`3`2.w`2.w`2`a`2`Ua2aX.S.eae.C.C```aag#y#y#y#y#y",
"#y#y#y#y#y`Z`W`va..y.D.J`U`j`r.H.O`2.w.J.b.J`a.w`2`2`2`2.w`a`a`a.w.w.J`e`5an`Q.D.n`b`j.w.w`2.J.Haa.#`e`a#E.Pae.C.C`2`L#y#y#y#y#y",
"#y#y#y#y#I#X`2`j`B`3.o#K`B.w`2`a`a.J`r`a.w`2`2.w`2.w`2`2.w`a.J`r.a.a.a.T.w.H`Ran`QaOaR.#.b.T`j`r`W`2`2.H.J#E.c`a`2`j.k#haV#y#y#y",
"#y#y#y.m`j.w.C.H`j.J.f...w.w`2`a`r`a.w`2.w`2.w`2.w`2.w.w`2.w`2`2`2.w`a.Hal`Q.N.CaO#0`R#3`m.H`z`2.w`2.w`2`e`B#Q`2`j.H.C.w.u#y#y#y",
"#y#y#o`z.#`eae.5`F.w.4.w.w`2.J.J.w`2`2.w`2.w`2.w`2.w`2`2.w`2.w`2.w`2`2`2`a.Has`b`W#4`MaO`M`3.H.N`2.w`2`2.w.C.gap.Hae.5.5.w#g#y#y",
"#y#y#k.O.y.C.C.C``aX.h.w`2.w.w`2.w`2.w`2.w`2.w`2.w`2.w.w`2.w`2.w`2.w.w`2`2`2`aaian`f.5#3aOaR.N`i`2.w`2.w`2.baHatae.C`e.5ae.YaC#y",
"#y#B.waf.C.C.Cae.H.U.N`2.w`2.w`2.w`2.w`2.w`2.w`2.w`2.w`2.w`2.w`2.w`2`2.w.w`2.w`2.C.v`H.5#Z`s`S.b.e`2`2.w`2.w.H.W.y.C.C`e```a`E#y",
"#y#6.O.e.C.C`e`F.J.g.w.w`2.w`2.w`2.w`2.w`2.w`2.w`2.w`2.w`2.w`2.w`2.w`2.w`2.w`2`2`2.C#8`Q.5.v.n.G.D.o.w`2.w`2.H..`Qae.C`e`F.C.j#y",
"`Y.A`v`C.C.C.C.5`m`h.w.w`2.w`2.w`2.w`2.w`2.w`2.w`2.w`2.w`2.w`2.w`2.w`2.w.#`2.w`2.w`2ae#3`i.n`c`M`W.P`2`2`2`2.b.8`Hae.C.Cae`F`B#L",
"`Z.J.6.C.C.C`e.5aHa#.#.#`2.w`2.w`2.w`2.w`2.w`2.w`2.w`2.w`2.w`2.w`a`z`H.2.2`S.6.#`2`2.w.5#7.5#8.n#2.D.o.w`2`2`raX`p.C.C.C.C.5`a#g",
".X.w.c.C.C.C.C`F`eaEacap.w`2.w`2.w`2.w`2.w`2.w`2.w`2.w`2.w`2.w`raK`f.i`z.T`W`p`n`3.w`2`raO`o`R#8a..y`Q`j`r.O.7`A.Pae.C.C`e.5.baB",
"`N`Ba..C.C.C.C.H.7`2`m`B.w`2.w`2.w`2.w`2.w`2.w`2.w`2.w`2.w`2.ba4.oa5aKaKa4.T`W.2.w`2.w`2`FaR`Ras`D`Q`7`B.b`a`4aY#E.y.C.C.C`F`e#u",
"aG`m.e.C.C.C`F.O`X.J.J.w`2.w`2.w`2.w`2.w`2.w`2.w`2.w`2.w`2`a.a`3aZ.oa5.oaK.T`W.w.w`2`2`2.baO`7ai`i.R`5.s`a.J`a`e`B`Pae.C`e`F.C##",
"aG.#a..C.C.C.C.4.#`2`2.w`2.w`2.w`2.w`2.w`2.w`2.w`2`2.w`2.#`W`f.8aZaZ.o.T`W.J.w`2.w`2.w.w.w.5.v`RaQaval.c`2`2`2`a.H.S`C.C.C`F.H#5",
"`k.N`naeae.C.b.g.w.w`2.w`2.w`2.w`2.w`2.w`2.w`2`2.w.N`3`v`v`x`x`m`m.oaH`a.w`2`2.w`2.w`a.T`2.C#8`5`e.Aal.A`2.w`2`2`e...R.D.C.5.J#J",
"#z.Hap`Q.T.J`z.W`2.w`2.w`2.w`2.w`2.w`2.w`2.w`2.J.B`f.8`m.8.L.h.L.k`3.w`2.w`2.w`2.w`2`a.a`j.H`5as.D.P`Dan`2`2.w`2.H.hao#2a..b.p.q",
"#y#P`a.p.p`a.N.W.w`2.w`2.w`2.w`2.w`2.w`2.w`2.w.w.H`p.8.L.L.L.L.L.Lat.w`2.w`2.w`2.w`2.w.B.#.b`R`D`ea8`D.P`2`2.w`2.b`B`h`j.p`j#DaV",
"#yaM.w.w`r.b`z#1.w.w`2.w`2.w`2.w`2.w`2.w`2.w`2`2.b.o`x.h.L.....L.h.j.s`2.w`2.w`2.w`2`2`C.o.J`FaQaQa8as`7.#`2.w`2.b`m.W.J`r`2#n#y",
"aC.A`B`C`F``.b.S.w`2.w`2.w`2.w`2.w`2.w`2.w`2`2`a.a`x.8.L.L.......Lap.#.w`2.w`2`2.w`2`2`C.o`r`RaQaQa8.n.P`2`2.w`2.baX.2ae.5`F`B#L",
"aj.w.cae`eae`e.S`2.w`2.w`2.w`2.w`2.w`2.w`2.w`2.b.i.8`x.h.L.....L.Lah.w`2.w`2`a.w.w`2.w`i.o`raiaQ`ea8.n`o`2.w`2`2.H`X.y.C.C``.J#h",
".1a1.c.C.C.C.5.g`x.w.w`2.w`2.w`2.w`2.w`2.w`2.w.Ha5`m`x.L.L.L.L.L.hat.#.w`2`2`W`z`2.w.wal`m`e.DaQaQ`D.n.2`2`2.w`a.J.4.C.C`e.5.Hau",
"#T.##0.C.C.C.5.N#Q.N.L.#.w`2.w`2.w`2.w`2.w`2`a.B`3aZ`m`m`x.h.L.L`mat`3`2`2.J`Q`2`2`2.J`D.#aeaQaQ`e`D`5`H`aaf`O`aa2.sae.C`e`F`e#u",
"az.#.Rae.C.C.C.5`B#K#w`x.w`2.w`2.w`2.w`2.w`2.b`Wa5aZaZ`m.8`m`x`m`m`v`P`3`aa4.o`2.w`2`ea.`aaiaQaQaQaQ`D`3`ra6`J#K.O.C.C.C.C`F.b.u",
"ajaH`S.C.C.C.C`F`e`U.Oap.w`2.w`2.w`2.w`2.w`2.C.ia5.oaZ`3.saZ`m.s`m`3aZafaf.N`2.w`2.J.D.s.H.DaQ`eaQ.DavaY`r.H.w.4`C.C.C.C`e.5`a#q",
"#z.a.k.C.C.C`e`F.N`X`r.w.w`2.w`2.w`2.w`2`2.waea4`fa5.oa5aZ`3aZ`faKaK`f.T.J.w`2`2.w`e`Q.T.CaQaQaQ.DaQ.2`2`2.w`e.L.cae.C.C.C`F`2#S",
"aV`K.Y`o.C.C.C.5a1#1.w`2.w`2.w`2.w`2.w.w`2.wae.i`zaKaK.oa5.o.6`r.b`r`r.w`2`2.w.w.Ha8`H`eaQaQaQaQ.Da8.N`2.w`2.b.h.2.C.C.Cae.C.haW",
"#yaq`B#7.C.C`e`F`r#E.w`2.w`2.w`2.w`2.w`2.w`2ae.aa4.T`zaK`f`z.6`P.#`2`2`2.w`2`a.a.a`Q.BaQaQaQaQaQaQ.2`2.w`2`2.b`t`8.C.C`e`F.J`laV",
"#y#o.bap`i.C.Cae`F.Z.#.w`2.w`2.w`2.w`2.w`2`2`eaQ.Ta4.T.TaK`zaKaK#2.6af.o`z`W.a.a`8.PaQ.BaQaQ`e.Da8.w`2.w`2.w.J.W`e.C.C.Cae`j#R#y",
"#y#y#c`B`nae.C.C.5.haT.w`2.w`2.w`2.w`2.w`2`2`rai`W`Wa4.Ta4.Ta4.T`Wa4`p#``p.a.a.a.B.B.BaQaQaQaQ`i`z`2.w`2`2`r.pao.Aae.C`F.J`P`Y#y",
"#y#y#o`C`h`Mae`e`a.b`V.#.w`2.w`2.w`2.w`2.w`2.wae.B#``W`W`W`W`W`W`W`W`W.a.a.aa8.B.BaQaQaQ`e.DaQ#``2.w`2.w.w.J.K`B`P`oae.H.p.q#y#y",
"#y#y#y.1`r.L.o`2`j.b`B#F.w.w`2`2.w`2.w`2.w`2`2.b`F#`.a.aa8`W#`.a#`.a.a.a.a.B.B.B.BaQaQaQaQ.D`W.w.w`2.w`2.Ja2..`2`j.s.w.p`w#y#y#y",
"#y#y#y#yaM#Z.w`j`2`r`F`ta#.w.w`a`3.w`2.w`2.w`2`2aeai.a.a.a.a.a.a.a.a.aa8.B.B.BaQaQaQaQaQ.D`W`2`a.Y.#.w`a`d`m`Fae`a`jaI#V#y#y#y#y",
"#y#y#y#y#y`Z`W.#.Cae.5ae.4#E`m`j.Z.Y.w`2.w`2.w`2.w.5.D.a.a.B.B.a.B.B.B.B.B.BaQaQaQaQ.DaQ.J`2.JaLaDap`jaJ.d`e.C`F``aY.Q#y#y#y#y#y",
"#y#y#y#y#y#o.J#2ae.C`e`F`F.N`t.7aJ`m.w`2.w`2.w`2`2`a`Fai.B.B.B.B.BaQ.BaQ.BaQaQaQ.D.D.baH`2`2.J`e`d#K`d`2.C.C.C`e.5`aag#y#y#y#y#y",
"#y#y#y#y#y`u.yap`C.C.C.C.C.5.5`0.L.w.w`2.w`2.w`2.w`2.w.C#4aQaQ.BaQaQaQ.Daiaiai`e`raH`2`2.w`2`2.b.N.saeae.C.C.Caeae`BaF#y#y#y#y#y",
"#y#y#y#y#y#y#c.O`nae.C.C.C`e.5aH#E.w`2.w`2.w`2.w`2.w`2`2.b`F`RaiaQaQ.P#``r.J.w.w.w.w`2.w`2.w`2`raa`Qae.C.C.C.Cae`r`P`Y#y#y#y#y#y",
"#y#y#y#y#y#y#o.Hap.P.C.C.C.C.C.5`Xa#.w.w`2.w`2.w`2`2.w`2`2`2`r`eae`Rai`Da8`8.B.baH`a`2.w`2.w`a`daX.C.C.C.C`eae`e.p.q#y#y#y#y#y#y",
"#y#y#y#y#y#y#y.l`2.t`C.C.C.C.Cae`Faa#F.#.w.w`2.w.w`a`x.#.w`2`2`2.w.w`a.J.J.wa3aZ.w`2.w`2.w.w`d.d`e.C.C.C.C.C.C`j.z#y#y#y#y#y#y#y",
"#y#y#y#y#y#y#yaC`#`j.Ial.C.C.C.C`F.5`B`V`h.#.w.w.w.b.U`O.w`2.w`2`2.w`2`2.Ha6#w`x.w.w.w`2.p.7`t.Bae.C.C.C.C.C`2#Xab#y#y#y#y#y#y#y",
"#y#y#y#y#y#y#y#y#p.0`B`P.Pae.C`e.C.5`e`raX`A.W..`B`d`J`v.w.w`2.w`2.w`2`2.J.baE.S.h.daJ.7`d`j`3a..C.C.C.C.H`2.GaW#y#y#y#y#y#y#y#y",
"#y#y#y#y#y#y#y#y#y`u.0`2ap#0.C.Cae`e`j.w`e`e.N.d`4`a.J`V.L.w.w.w.w.w.w.w`2`da1.N.f.O.wae.H`j`B.Rae.C.C`r.p#XaW#y#y#y#y#y#y#y#y#y",
"#y#y#y#y#y#y#y#y#y#y#p`G`r.h`v.c`r`2`jaH.H`F`F`Faeae.5`r.g.g.g`XaX`t`taJaJaL.C`Faeaeaeae``.H`j`v.2.J`j`j#iab#y#y#y#y#y#y#y#y#y#y",
"#y#y#y#y#y#y#y#y#y#y#y#y#B#s`W.w.w.w.s`Cae`e.C.C.C`e.C.5`F.H`ra1`B`BaH`r`e.C.C.C.C.C.C`e.C``.w.w.w.Nam.3#y#y#y#y#y#y#y#y#y#y#y#y",
"#y#y#y#y#y#y#y#y#y#y#y#y#y#y#z`ga`a7.L`oae.C.C.C.C.C.C`e.Cae``.b.w.caeae.C.C.C.C.C.C.C.Cae.H.Oay#BaW#y#y#y#y#y#y#y#y#y#y#y#y#y#y",
"#y#y#y#y#y#y#y#y#y#y#y#y#y#y#y#y#yaz.Jap.R.C.C.C.C.C.C.C.C`e.5`e.p.cae.C.C.C.C.C.C.C.C`e.J.p`1#y#y#y#y#y#y#y#y#y#y#y#y#y#y#y#y#y",
"#y#y#y#y#y#y#y#y#y#y#y#y#y#y#y#y#y#y`.`r.h.Ea.`i.C.C.C.C.C.C.5.b.p#M.C.C.C.C.C.C`e.H.J`j`2#l#y#y#y#y#y#y#y#y#y#y#y#y#y#y#y#y#y#y",
"#y#y#y#y#y#y#y#y#y#y#y#y#y#y#y#y#y#y#y.X`K`a.h`v.6`Q`8.y.B.B.J`j`a`m.E`Q.e`8`p`z`2`j`2`6#B#y#y#y#y#y#y#y#y#y#y#y#y#y#y#y#y#y#y#y",
"#y#y#y#y#y#y#y#y#y#y#y#y#y#y#y#y#y#y#y#yaV`T#v`8`a.#`B`B`B`j`2#O#B.0.J.#`j`j`2`z#7#d.x#y#y#y#y#y#y#y#y#y#y#y#y#y#y#y#y#y#y#y#y#y",
"#y#y#y#y#y#y#y#y#y#y#y#y#y#y#y#y#y#y#y#y#y#y#y#p#BaS#G#t#baSaF#y#y#y#o.XazaM#B#z#y#y#y#y#y#y#y#y#y#y#y#y#y#y#y#y#y#y#y#y#y#y#y#y"
};
