/* XPM */
static char *Free_Converter_com_crowncoin64_90235639[] = {
/* columns rows colors chars-per-pixel */
"64 64 45 1 ",
"  c #7955D7",
". c #7C58D7",
"X c #7E5BD8",
"o c #815ED9",
"O c #8563DA",
"+ c #8867DB",
"@ c #8B6CDC",
"# c #8F70DD",
"$ c #9274DE",
"% c #9679DF",
"& c #987BDF",
"* c #977BE0",
"= c #9A7EE0",
"- c #9E83E2",
"; c #A086E2",
": c #A289E3",
"> c #AB94E5",
", c #AE98E7",
"< c #B09BE7",
"1 c #B39DE8",
"2 c #B6A2E9",
"3 c #B9A6EA",
"4 c #BBA9EB",
"5 c #C0AFEC",
"6 c #C3B3ED",
"7 c #C7B8EF",
"8 c #C9BAEF",
"9 c #CCBFF0",
"0 c #CFC2F1",
"q c #D1C5F1",
"w c #D6CBF3",
"e c #D9CEF4",
"r c #DDD3F5",
"t c #E0D7F6",
"y c #E4DCF7",
"u c #E6DEF8",
"i c #E6E0F7",
"p c #E7E0F8",
"a c #EAE5F9",
"s c #EEE9FA",
"d c #F1EDFB",
"f c #F5F3FC",
"g c #F8F6FD",
"h c #FFFFFF",
"j c None",
/* pixels */
"jjjjjjjjjjjjjjjjjjjjjjjjjjj::::::::::jjjjjjjjjjjjjjjjjjjjjjjjjjj",
"jjjjjjjjjjjjjjjjjjjjjjj:::::::;:::::::::::jjjjjjjjjjjjjjjjjjjjjj",
"jjjjjjjjjjjjjjjjjjjj::::::::::;:::::::::;:::jjjjjjjjjjjjjjjjjjjj",
"jjjjjjjjjjjjjjjjjj:::;:;::;::::::::;::::::;;::jjjjjjjjjjjjjjjjjj",
"jjjjjjjjjjjjjjjj::::::;;::::::::::;:;:;:::-:::::jjjjjjjjjjjjjjjj",
"jjjjjjjjjjjjjj;;;;;;;;;;;;;;;;;;;;;;;;;;::::;;;;;;jjjjjjjjjjjjjj",
"jjjjjjjjjjjjj;;;;;;;;;;;;;;;-;;;;;;;;;;;:--;-:;-;;;jjjjjjjjjjjjj",
"jjjjjjjjjjjj;;;;;;-;;;;;;;;-;;;;;;;;;;;;-;::-;;:;;;;;jjjjjjjjjjj",
"jjjjjjjjjj-;-;-;;-;-;--;;;-;-;;---:-;-;-;;-;-:---;-;;-jjjjjjjjjj",
"jjjjjjjjj-;;;-;--;-;;;;---;-;;-;-;:--;-;-;;-;;-;;-;;-;-jjjjjjjjj",
"jjjjjjjj--;-;----------;---;----;--------;--------------jjjjjjjj",
"jjjjjjjj--------;--;-------------------------------;-----jjjjjjj",
"jjjjjjj--=--------------------------=-----=---=------=---jjjjjjj",
"jjjjjj-------------&-=%&****&&%&==------------------------jjjjjj",
"jjjjj----=-=-==--=-==;888888888>:*=--=--=---=----==-=----=-jjjjj",
"jjjjj-==---=---=-=--*3hhhhhhhhh2fr;*=--=-==--==----=--==---jjjjj",
"jjjj===-*---*--*-*-*%7hhhhhhhha1hhi-&-=======-======-*-*-=-*jjjj",
"jjjj-===-&&=-&===-&-%whhhhhhhhr3hhh8$&--=-=&&$&&*==-&-&-==&--jjj",
"jjj=====*-*&&-&&&&*&*phhhhhhhh07hhhd-*-*=*-qwwww8===-&&-&=&==jjj",
"jjj===&=&&--&**-&--%-><dhhha,<;rhhhh2%*=&&1hhhhha**=*=**-&====jj",
"jj**&*=**-%*****-****$-ghhhe#%#whhhhw$=**$4hhhhhr$***=********jj",
"jj&&&&&&&&%%&&&&%&&%&$,hhhh8#*$3hhhhd-&&&$8hhhhhq$**&&&&&&&&&&jj",
"jj%%%%&%%%%%%%%%%%%%&$6hhhh<$&$-ghhhh1$&&$qhhhhh5$*%&&%%%%%%%&&j",
"j&%%%%%%%%%%%%%*%%%%%#whhhg:$&&#ehhhhw#$&$rhhhhh,$%%$*%%%%&*$&&j",
"j%$*&$&$*$**&%$*%%$%$$uhhhd=$&$#4hhhhd*%%%ahhhhh:$$%%*$&%%*%%$*j",
"j%*$$%$&$*$$$%%$$%*$%=dhhhy$&$%$-ghhhh1#$;ghhhhg-$*%$$%&$%$%$*$j",
"j$$$%$%$$%%$%$%$$$$$#:hhhh8#$%$$#rhhhhq#$:hhhhhs*$%$$%$$$$$$$%$&",
"$%$$$$$$$$$$$$$$%$%$@3hhhh3#$$%$#4hhhha$@>hhhhhu#$$$$$$$$%$%$$$$",
"$$$$$$$$$$$$$$$$$$$$@7hhhh>@$$$$#-ghhhh:+3hhhhhw@$$$$$$$$$$$$$$$",
"$$$$$$$$$$$$#$$$$$$$@whhhg-##$$$$#uhhhh4O6hhhhh6@$#$$$$$$#$$$$$$",
"$########$###$###$#$$phhhp#$$$###@6hhhh6Owhhhhh2@#$#$####$#$$###",
"#$$##$$#$##$$##$###@-ghhhw@####$#@1hhhh5+phhhhh>@$####$$###$##$#",
"###################@>hhhh6+######+3hhhh1#shhhhh;@###############",
"@######@#####@#####+2hhhh1+#@####+whhhg=$ghhhhg&@#######@###@###",
"#@@#@###@##@@#@#@@@+9hhhh:+@#@#@+-ghhht+-hhhhhi@@#@#@##@@@##@#@@",
"#@#@@@@@@@@#@@#@@@@@uhhhg&@#@@#@+rhhhh3o>hhhhhe+@@@@@@@@@#@@@@#@",
"@@@@@@@@@@@@@@@@@@@$dhhhy@@@@@@O3hhhha#O4hhhhh9O@@@@@#@@@@@@@@#@",
"j@@@@@@@@@@@@@@@@@+=hhhhqO@@@@+=ghhhh:OO9hhhhh4O@@@@@@@@@@@@@@@@",
"j+@@@@@+@@@++@@+@@O>hhhh4o@+@++rhhhh7O@Owhhhhh2O@+@++@+@@@@+@@@j",
"j@+@+@+@+++@@+++++O6hhhh<O+@@o4hhhhu++++uhhhhh:O@@+@+@@+++@+++@j",
"j@++++++++++++++++Owhhhg%O++O&ghhhg-O++@ahhhhg$O+++++++++++++++j",
"j++++++++++++++++++ihhha@++++thhhh4o++O$ghhhhs#++++++++++++++++j",
"jj++++++++O+++++++@dhhhrO++.4hhhhr++++O:hhhhhyO+++++++++++++++jj",
"jj++O+O+OO++++O++o&hhhh9.+o-ghhhg*o+O+X<hhhhheX++O+O+OO++OO+++jj",
"jjj++O+oO+OOO++OO >hhhh, o@ihhhh2X+O+OX4hhhhh9X+O+O++O+OO+O+O+jj",
"jjj+OOO+OOO+OOO+&*0hhhh<-#7hhhhwXOOOOOX7hhhhh3XOOOOOOOOOOOOOOjjj",
"jjjjOOOOOOOOOOo@dhhhhhhhh1ehhhd$oOOOOO.whhhhh:XOOOOOOOOOOOOO+jjj",
"jjjjOOOOOOoOOOX%hhhhhhhhh:phhh>.OOOOOOoyhhhhh=oOOOOOOoOOOOOOjjjj",
"jjjjjOoOOooOoo.:hhhhhhhhg:hhg> ooO+oOo@fhhhhg#XOoOoOOoOOoOOOjjjj",
"jjjjjOOoOoOooO.9hhhhhhhhy<gq&.oOOoooo.&hhhhhd+XoOXooOoooooOjjjjj",
"jjjjjjoOoOoOoOX:43434343:#&.XooooOOooo@34334<XoOoOOoOooOOOjjjjjj",
"jjjjjjjoooooooOX   .    XXXXoOooooooOoo     .OOoXXOoooooojjjjjjj",
"jjjjjjjoooooooooooooXOoXOXoOXoooooooooooXXoOoOXoOXooooooojjjjjjj",
"jjjjjjjjXoooooooXOooXoXOoXoooXooooooooooXOXXoooXoXoooooOjjjjjjjj",
"jjjjjjjjjXXooXXXXXoXXoXXXOXXXXoooXXXXXoXXoXXoXXXXoXXXXojjjjjjjjj",
"jjjjjjjjjjXoXXoXoXXoXXXXXXXXXoXXXXoXoXXoXXXoXXXXXXoXoXjjjjjjjjjj",
"jjjjjjjjjjjXXXXXXXXXXXXXXXXXXXXXXXXXXXXXXXXXXXXXXXXXXjjjjjjjjjjj",
"jjjjjjjjjjjjjXXXXXXXXXXXXX.X.XX.XXX.X.XXXXXXX.XXXXXjjjjjjjjjjjjj",
"jjjjjjjjjjjjjjXX.X.X.X.X.XXXXXXXXXXXXXX.X.XXX..XXXjjjjjjjjjjjjjj",
"jjjjjjjjjjjjjjjj.X.X..X..X.XX..XX..X..XX.XXX.XX.Xjjjjjjjjjjjjjjj",
"jjjjjjjjjjjjjjjjjX....X........................jjjjjjjjjjjjjjjjj",
"jjjjjjjjjjjjjjjjjjjX.... X...................jjjjjjjjjjjjjjjjjjj",
"jjjjjjjjjjjjjjjjjjjjjjX...................jjjjjjjjjjjjjjjjjjjjjj",
"jjjjjjjjjjjjjjjjjjjjjjjjjj ...........jjjjjjjjjjjjjjjjjjjjjjjjjj"
};
