/* XPM */
static char *Free_Converter_com_crowncoin32_54715542[] = {
/* columns rows colors chars-per-pixel */
"32 32 179 2 ",
"   c #7A56D7",
".  c #7B56D7",
"X  c #7A57D7",
"o  c #7B57D7",
"O  c #7C58D7",
"+  c #7C59D7",
"@  c #7D59D7",
"#  c #7C59D8",
"$  c #7D59D8",
"%  c #7D5AD8",
"&  c #7E5AD8",
"*  c #7E5BD8",
"=  c #7F5CD8",
"-  c #7F5CD9",
";  c #7F5DD9",
":  c #805DD8",
">  c #805DD9",
",  c #805ED8",
"<  c #805ED9",
"1  c #815FD9",
"2  c #8160D9",
"3  c #8260D9",
"4  c #8261D9",
"5  c #8361D9",
"6  c #8462DA",
"7  c #8463DA",
"8  c #8563DA",
"9  c #8564DA",
"0  c #8664DA",
"q  c #8665DA",
"w  c #8765DA",
"e  c #8665DB",
"r  c #8666DB",
"t  c #8766DB",
"y  c #8767DB",
"u  c #8867DB",
"i  c #8868DB",
"p  c #8968DB",
"a  c #8969DB",
"s  c #8A69DB",
"d  c #8A6ADB",
"f  c #8969DC",
"g  c #8A6ADC",
"h  c #8B6BDC",
"j  c #8B6CDC",
"k  c #8C6CDC",
"l  c #8C6DDC",
"z  c #8D6EDC",
"x  c #8D6EDD",
"c  c #8E6FDD",
"v  c #8E70DD",
"b  c #8F70DD",
"n  c #8F71DD",
"m  c #9071DD",
"M  c #9072DD",
"N  c #9173DD",
"B  c #9173DE",
"V  c #9274DD",
"C  c #9174DE",
"Z  c #9274DE",
"A  c #9375DE",
"S  c #9376DE",
"D  c #9376DF",
"F  c #9477DE",
"G  c #9577DE",
"H  c #9477DF",
"J  c #9578DF",
"K  c #9579DF",
"L  c #9678DF",
"P  c #9679DF",
"I  c #967ADF",
"U  c #987BDF",
"Y  c #977BE0",
"T  c #987CE0",
"R  c #997CE0",
"E  c #997DE0",
"W  c #997EE0",
"Q  c #9A7EE0",
"!  c #9A7FE1",
"~  c #9B7FE1",
"^  c #9B80E1",
"/  c #9C80E1",
"(  c #9C81E1",
")  c #9D82E1",
"_  c #9D83E2",
"`  c #9E83E2",
"'  c #9E84E1",
"]  c #9F85E2",
"[  c #A086E2",
"{  c #A187E2",
"}  c #A188E2",
"|  c #A288E3",
" . c #A289E3",
".. c #A38BE3",
"X. c #A48BE3",
"o. c #A58CE4",
"O. c #A58DE4",
"+. c #A78FE4",
"@. c #A890E4",
"#. c #AB93E5",
"$. c #AB95E5",
"%. c #AC95E5",
"&. c #AC95E6",
"*. c #AF99E7",
"=. c #B09BE7",
"-. c #B19BE7",
";. c #B29DE7",
":. c #B29DE8",
">. c #B4A0E8",
",. c #B5A1E9",
"<. c #B6A2E9",
"1. c #B7A3E9",
"2. c #B8A4E9",
"3. c #B9A6EA",
"4. c #B9A7EA",
"5. c #BBA8EA",
"6. c #BDABEB",
"7. c #BFADEB",
"8. c #BFAEEC",
"9. c #C0AEEC",
"0. c #C5B5ED",
"q. c #C6B6ED",
"w. c #C5B5EE",
"e. c #C6B7EE",
"r. c #C8B8EE",
"t. c #C9B9EE",
"y. c #C9BAEF",
"u. c #CABCEF",
"i. c #CCBDEF",
"p. c #CCBEEF",
"a. c #CDBFF0",
"s. c #CFC3F0",
"d. c #D0C3F1",
"f. c #D0C4F1",
"g. c #D2C6F1",
"h. c #D3C7F2",
"j. c #D4C8F2",
"k. c #D5C9F2",
"l. c #D6CAF2",
"z. c #D7CBF3",
"x. c #D9CFF3",
"c. c #DAD0F4",
"v. c #DBD1F4",
"b. c #DCD3F4",
"n. c #E0D8F5",
"m. c #E0D8F6",
"M. c #E1D9F6",
"N. c #E2DAF6",
"B. c #E2DBF6",
"V. c #E3DBF6",
"C. c #E5DEF7",
"Z. c #E6E0F7",
"A. c #E7E0F7",
"S. c #E7E1F8",
"D. c #E9E3F8",
"F. c #EAE4F9",
"G. c #EBE6F9",
"H. c #EEE9FA",
"J. c #EFEAFA",
"K. c #F0EDFB",
"L. c #F2EEFB",
"P. c #F2EFFB",
"I. c #F3F0FC",
"U. c #F4F1FC",
"Y. c #F4F2FC",
"T. c #F5F2FC",
"R. c #F5F3FC",
"E. c #F7F5FD",
"W. c #F8F6FD",
"Q. c #F9F7FD",
"!. c #F9F8FD",
"~. c #FBFAFE",
"^. c #FCFBFE",
"/. c #FCFCFE",
"(. c #FDFCFE",
"). c #FDFDFE",
"_. c #FEFEFF",
"`. c gray100",
"'. c None",
/* pixels */
"'.'.'.'.'.'.'.'.'.'.'.'.| | | | | | | ..'.'.'.'.'.'.'.'.'.'.'.'.",
"'.'.'.'.'.'.'.'.'.| | | | | | | | | | | | | | '.'.'.'.'.'.'.'.'.",
"'.'.'.'.'.'.'.'.| [ [ [ | | ] | } | } } | { [ [ [ '.'.'.'.'.'.'.",
"'.'.'.'.'.'.[ [ [ [ [ ] ] | ] | ' [ [ ' [ [ [ [ [ [ '.'.'.'.'.'.",
"'.'.'.'.'.] ] ] ] ] ] ] ] ] ] ] ] ] ] ] ] ] ] ] ] ] ] '.'.'.'.'.",
"'.'.'.'.` ` ` ` ` ` ` ` ` ` ` ] ] ] ` ] ` ` ` ] ` ` ` ` '.'.'.'.",
"'.'.'.` ( ( ` ` ` ` ^ U E E E E J ^ ( ( ( ( ( ( ` ` ` ( ` '.'.'.",
"'.'.'.( ( ` ^ ^ ` E O.N.N.N.B.r.7.` ^ ^ ( ( ( ( U ^ ^ ` ^ ` '.'.",
"'.'.E ` ~ ~ ~ ~ ~ J 3.`.`.`.`.x.`.g.J ^ ^ U U U ^ ` ` E ^ ` '.'.",
"'.E E E E E E E E H -.S.`.Q.h.p.`.`.X.J J e.F.D.3.A U ^ U E E '.",
"'.E Y Y U Y U U Y E b s.`.Z.j =.`.`.7.A A N.`.`.3.N J U Y E Y '.",
"'.J J J J U J H J J A C.`.k.b U P.`.N.N J F.`.`.$.A J J J J J '.",
"H H H H H H H H J A Y P.`.7.b b g.`.Q.( U R.`.!.[ V H H J H H H ",
"A A B H V H V H A B | /.`.%.b z -.`.`.1.^ `.`.H.H B B H A A A A ",
"B B B B B B B B B c -.`.~.` b b J P.`.s.| `.`.V.b B B B B B B B ",
"B b B c m m m m b a e.`.H.A b b a x.`.x.-.`.`.z.a m b B c B b B ",
"b b c c c c c c c u k.`.v.g c c a N.`.r.6.`.`.p.0 c c c c b c c ",
"l l l c l l c c c c Z.`.p.0 c 0 #.^.`.X.a.`.`.5.0 j c c l l l l ",
"l a j g a j g j u H E.`.,.7 a c F.`.N.0 n.`.`.#.0 j j g a c l a ",
"g g g g g g g g 7 X.`.`.[ 0 1 r.`.Q.E 0 F.`.`.^ r g g g g g g g ",
"'.a a u r a a g 1 -.`.Y.B * X.`.`.3.* B R.`.Y.b 7 g y y u g 0 '.",
"'.0 r 0 r 0 0 0 O e.`.C.1 a G.`.x.1 3 Y ~.`.F.a 0 r r r 0 r r '.",
"'.0 0 0 0 0 0 0 B b.`.v.a i.`.Y.B 1 1 O.`.`.n.1 0 0 r 0 0 0 0 '.",
"'.'.0 3 7 3 1 c I.`.`.`.k.K.`.%.+ 7 + ,.`.`.d.+ 3 3 3 0 3 7 '.'.",
"'.'.3 3 3 3 * [ `.`.`.`.h.C.*.+ 1 3 . e.`.`.9.  3 3 3 3 3 3 '.'.",
"'.'.'.3 3 3 ; j [ ` ] ] A u . 1 1 1 ; A [ ] c ; 3 3 1 1 1 '.'.'.",
"'.'.'.'.1 1 1 ;   O     * * 1 1 1 1 1 O . . * 1 1 ; ; 1 '.'.'.'.",
"'.'.'.'.'.; + ; : * : * * * * * * * : * : * * * ; ; ; '.'.'.'.'.",
"'.'.'.'.'.'.* * * * * * * * * * * * * * * * * * + ; '.'.'.'.'.'.",
"'.'.'.'.'.'.'.* * * * O * * * * * * O * * * * O * '.'.'.'.'.'.'.",
"'.'.'.'.'.'.'.'.'.+ . *     O O O O   O + O + '.'.'.'.'.'.'.'.'.",
"'.'.'.'.'.'.'.'.'.'.'.'.O O O O O O O O '.'.'.'.'.'.'.'.'.'.'.'."
};
