/* XPM */
static char *Free_Converter_com_crowncoin128_28365738[] = {
/* columns rows colors chars-per-pixel */
"128 128 44 1 ",
"  c #754FD5",
". c #7A56D7",
"X c #7C58D7",
"o c #7E5BD8",
"O c #805ED9",
"+ c #8563DA",
"@ c #8867DB",
"# c #8C6CDC",
"$ c #8F70DD",
"% c #9274DE",
"& c #967ADF",
"* c #987CDF",
"= c #977BE0",
"- c #997EE0",
"; c #9D83E2",
": c #A086E2",
"> c #A289E3",
", c #AB94E6",
"< c #AE99E7",
"1 c #B19CE7",
"2 c #B39EE8",
"3 c #B6A2E9",
"4 c #B9A5EA",
"5 c #BCAAEB",
"6 c #C0AEEC",
"7 c #C3B3ED",
"8 c #C7B8EE",
"9 c #CABCEF",
"0 c #CCBEF0",
"q c #CEC1F0",
"w c #D1C5F1",
"e c #D6CBF3",
"r c #D8CEF3",
"t c #DDD3F4",
"y c #E0D7F6",
"u c #E3DBF6",
"i c #E7E1F8",
"p c #EAE5F9",
"a c #EEE9FA",
"s c #F1EEFB",
"d c #F6F4FC",
"f c #F9F7FD",
"g c #FFFFFF",
"h c None",
/* pixels */
"hhhhhhhhhhhhhhhhhhhhhhhhhhhhhhhhhhhhhhhhhhhhhhhhhhhhhhhh>>>>>>,>>>>>>>>,hhhhhhhhhhhhhhhhhhhhhhhhhhhhhhhhhhhhhhhhhhhhhhhhhhhhhhhh",
"hhhhhhhhhhhhhhhhhhhhhhhhhhhhhhhhhhhhhhhhhhhhhhhhhh>>>>>,>>>,>>>>>>>,>>>>>>,>>>hhhhhhhhhhhhhhhhhhhhhhhhhhhhhhhhhhhhhhhhhhhhhhhhhh",
"hhhhhhhhhhhhhhhhhhhhhhhhhhhhhhhhhhhhhhhhhhhhhh>>>>>>>>>>>>>>>>>>>>>>>>>>>>>>>>>>>>hhhhhhhhhhhhhhhhhhhhhhhhhhhhhhhhhhhhhhhhhhhhhh",
"hhhhhhhhhhhhhhhhhhhhhhhhhhhhhhhhhhhhhhhhhhh>>>>>>>>>>>>>>>>>>>>>>>>>>>>>>>>>>>>>>>>>>hhhhhhhhhhhhhhhhhhhhhhhhhhhhhhhhhhhhhhhhhhh",
"hhhhhhhhhhhhhhhhhhhhhhhhhhhhhhhhhhhhhhhh>>>:>>:>>>>>>>>>:>>>>>>>>>>>>>>>>>>>>>>>>>:>:>>>hhhhhhhhhhhhhhhhhhhhhhhhhhhhhhhhhhhhhhhh",
"hhhhhhhhhhhhhhhhhhhhhhhhhhhhhhhhhhhhhh>>>>>>:>>>:>::>>>>>>>:>>>>>>>>>>>>>>>>>>>>:>>>>>>>>>hhhhhhhhhhhhhhhhhhhhhhhhhhhhhhhhhhhhhh",
"hhhhhhhhhhhhhhhhhhhhhhhhhhhhhhhhhhhh>>>>>>>>>:>:>>>>>>>>>>>>>>>>>>>>>>>>>>>>>>>>>>>:>:>>>>>>hhhhhhhhhhhhhhhhhhhhhhhhhhhhhhhhhhhh",
"hhhhhhhhhhhhhhhhhhhhhhhhhhhhhhhhhh>>>>>:>>>>>>>>:>>>>>>>>>>;>>:>:>::>>:>>:>>:>:>:>>>>>>;>>>>>>hhhhhhhhhhhhhhhhhhhhhhhhhhhhhhhhhh",
"hhhhhhhhhhhhhhhhhhhhhhhhhhhhhhhh>>>:>>>>>>;>>>>>>:>>>:>:>>>>>>>:>>>>>>>>:>:>::>>>>:>;>>>>>:>>>>>hhhhhhhhhhhhhhhhhhhhhhhhhhhhhhhh",
"hhhhhhhhhhhhhhhhhhhhhhhhhhhhhh>>>>>>>:>>>>>>>;>>>>>:>>>>>;:>>>>>>:>>:>:>::>:>:>:>>>>>>>>>>>>>>>>>>hhhhhhhhhhhhhhhhhhhhhhhhhhhhhh",
"hhhhhhhhhhhhhhhhhhhhhhhhhhhhh:::::::::::;>:>>;:::>::>:>:;>:>:::::::::>::>:>>:>::::>:>>>>::>:;:>:>:>hhhhhhhhhhhhhhhhhhhhhhhhhhhhh",
"hhhhhhhhhhhhhhhhhhhhhhhhhhh:>:>:>:::::>:>>:>>>>::::>:::>>:>:::::::>::::::>::>::>>:::;>;>:::::::::>>>:hhhhhhhhhhhhhhhhhhhhhhhhhhh",
"hhhhhhhhhhhhhhhhhhhhhhhhhh:::::;::::>;::;>;>>::::::::::;::::::::::::::::;:::::::>:::::::::::::::;>:::;hhhhhhhhhhhhhhhhhhhhhhhhhh",
"hhhhhhhhhhhhhhhhhhhhhhhhh;::::::>;;:::::>;>;;:;>:::;::::;:::;::::::::::;::::::::;:;>;:::::::>;;:>;:::>:hhhhhhhhhhhhhhhhhhhhhhhhh",
"hhhhhhhhhhhhhhhhhhhhhhh:::::::::::::::;:>;>;>:::::::::::>;::>;::::::::::::::::::>:::::;::::;:::::::::::::hhhhhhhhhhhhhhhhhhhhhhh",
"hhhhhhhhhhhhhhhhhhhhhh::::::;::::::::;>;>>;>;:::::::;:::::::::::::::::;::::;::::;::::::::::::::;:;:::;::::hhhhhhhhhhhhhhhhhhhhhh",
"hhhhhhhhhhhhhhhhhhhhh:::;::;>>;::;:;:::;::;:::;:;:::;::;;:;::;;:;:::;;::;>;;:;;>;;;:;::;>;:;:;;>>;:;;>>;:::hhhhhhhhhhhhhhhhhhhhh",
"hhhhhhhhhhhhhhhhhhhh;:;:;:;:;;:;;:;:::;:;:;:;::;:;:::;:::;:;;::;;:;::::;:;;>:::;;>::::::;;;>;>>;;:;:>;;>;;:;hhhhhhhhhhhhhhhhhhhh",
"hhhhhhhhhhhhhhhhhhh;:;:;;;>:;:;:;:;:;;;:;:;::;:;;::-;::;:;;::;;:;;:;;;;;;>:;;;;::;:;;:;;;>::;;;;;::;;;;;;:;::hhhhhhhhhhhhhhhhhhh",
"hhhhhhhhhhhhhhhhhh;:;:;;:;;;:;:;:;::;::;:;:;;:;>-::;:;;:;:::;::::;;:::;:;:;;;>:;;:;:;;;::;;;;>;>;::;:;;>:;:;;:hhhhhhhhhhhhhhhhhh",
"hhhhhhhhhhhhhhhhh;;;;;;:>;;:;;>;;;:;;;;;;;;;>;;;:;;;;;;;;;;;;;:;;;;;;;;::;::;::;;::;::;::;;:;;;;;>;;;>;;;;;:;;:hhhhhhhhhhhhhhhhh",
"hhhhhhhhhhhhhhhh:;:;;:;:;;;;;;;;;;;;;:;;>;;;;;;::;;:::;:;::;;;;;;;>>;::;;;;;:;;;;;;:;;;;;:;;:;::;;;;;:;;;:;;:;;;hhhhhhhhhhhhhhhh",
"hhhhhhhhhhhhhhh;;;:;;:;;;;;;;;;;;::;;:;:;;;:;:;;->;;:-;:;;;;;::;;;;;;;;;;:;;;;;;;;;;;;;;;;;;;;;;;;;;;;;;;;;;;;;;;hhhhhhhhhhhhhhh",
"hhhhhhhhhhhhhh;;;;;;;;;:;;:;;:;;;;;;;;;;;;;;;;;;>->;;;;;;:;;;;;;>;;;;;;;;;;;;;;;>;;;;:;;;;;:;;;;;;;>;;:;;;;:;;;;;;hhhhhhhhhhhhhh",
"hhhhhhhhhhhhhh;;;;;;;;;;;;-;;;;;;;;;*;;;-:-:;;;;--;-:;-:;;;;*;;;;;;;;;*;;;;;-;;;;;;;;;;;-;;;;;;-;-;;-:-:;;;;-;;;;;hhhhhhhhhhhhhh",
"hhhhhhhhhhhhh;-;;-;;;;-;;;;;;;;-;-;;;;*;:-:-;;-;->:--::-;;;;;;;;-;;;;;;;-;;;;;;;-;;;;-;;;;;;;;;;->;;:-:--;;;;;;;;;;hhhhhhhhhhhhh",
"hhhhhhhhhhhh;;-;;;;;;;;;;;;;;;;;;;;;;;;;-:;;;;:;:-:;;:;-;;;;;;;;;;;-;;;;;;;;;;;;;;;-;;;;;;-;;-;;;;;;;:-:;;;;;;;;;;;;hhhhhhhhhhhh",
"hhhhhhhhhhh;;;;;;--;;-;--;-;-;;-;;-;;-;;;-;;**-------------;*;;*;-;;;-;-;-;-;-;;;-;;;;-;-;-;;;-;-;-;--;-;;-;-;-;;--;;hhhhhhhhhhh",
"hhhhhhhhhhh-;;;-;;-;-;;;;--;;;;-;;--;;;--;-:>>,>,>>>>>>,>>>>>>;-==;;-;;;-;-;;-;--;;-;;;-;;;-;;-;;;;-;-;-;;--;;;---;;;hhhhhhhhhhh",
"hhhhhhhhhh;;--;;-;-;;;-;;;;;;-;;-;;;--;;:-*6fddddffdfddffffffs2-6,=;-;-;-;;;;;;--;;-;-;-;-;-;-;;--;;-:-:-;;;--;;;;;--;hhhhhhhhhh",
"hhhhhhhhh;-;;;-;-;;;;-;;-;;-;;-;;;-;;;;;;-&wgggggggggggggggggg,:gfr>=;-;;;;--;-;;;-;;-;;;-;;;;;-;;;;-:;-;;-;;;;;-;;--;;hhhhhhhhh",
"hhhhhhhhh-;;--;-;;--;---;-;---;---;;---;---uggggggggggggggggga-1gggf3=;----;-;-;-;-;-;-;-;-;---;---;---;--;;---;-;-;;-;hhhhhhhhh",
"hhhhhhhh-;--;-;--;-;---;-;-;;--;-;-;;-;-;-:sgggggggggggggggggu%6ggggg2**-;-;-;-;-;-;--;*---;---;-;-----;;;-;;*;;-;-;-;-;hhhhhhhh",
"hhhhhhhh---;----;------;-----------------&>ggggggggggggggggggq$egggggd>&-*;***;--*;*-;*;;;**-;-*--;-;-------;*-----*;---hhhhhhhh",
"hhhhhhh--;--;-;---;-;---;-------**--;*---&4gggggggggggggggggg5&ugggggge&-;*;;*;*-;*;;****;**;***-------;---;*---;-----*;;hhhhhhh",
"hhhhhhh-----------------*-------;;-------&9gggggggggggggggggg,-sggggggg,&**;----***;-*&&&&&&&&&&=-------*;**;*---------=*hhhhhhh",
"hhhhhh----------------------*---*--------&tgggggggggggggggggd;,ggggggggw%-----*-;---**54445554554,------*--**;;=--;*=;;*--hhhhhh",
"hhhhhh---------------&----------*--*--&-=;agggggggggggggggggp%4ggggggggd;*;*----*--*&6ggggggggggg0%-----;=*;=***--******--hhhhhh",
"hhhhh------=--=-==-------*--------------=-2223sggggggggr13354$0ggggggggg4%*=--------%qggggggggggg8%-----=====;=;--*;=*=;---hhhhh",
"hhhhh-==---===-==&&--&-&----&-&-----&-&---%&%;dgggggggg5$%%%&&uggggggggge&=====*=-=-&tggggggggggg3%-=---*;==**=&***==;===--hhhhh",
"hhhh-==-=-=-=-=--&-===--=&-&==--=-===-=-===-%1ggggggggg<%-=--%qgggggggggs;&-=-=-=-==&iggggggggggg,=-===-=-=====;=-===-=-=--=hhhh",
"hhhh===-&&=-==&&&-&===&&=-&-=&&=============%5ggggggggf;&====%,gggggggggg3%======&=&;sggggggggggf>&======================&==hhhh",
"hhhh&&&&===&*&==&&&&-&---&&&-&==**&*&*&*&***$wggggggggp&&&&*==&pggggggggge%&&***&&*&>fggggggggggs-&=***&****&*&&***&&*&*&&**hhhh",
"hhh&*&&&====&*&&-&---&&&-&-&&-&&*****&&&*&&*%uggggggggr%*&&===%9gggggggggs*&&&*&&**%,gggggggggggi&&&&**&&****&*&****&*&&&**&*hhh",
"hhh&&=&&&&&&&&&&&&&&&&&&&&&&==&&&&&&&&&&&&&&;sgggggggg8$&&&&&&%,gggggggggg1%&&&&&&&%4gggggggggggr%&&&&&&&&&&&&&&&&&&&&&&&&&&&hhh",
"hhh&&&&&&&&&&&&&&%&&&&&&&&&&=%&&&&&&&&&&&&&%>fgggggggg3%&&&&&&&&agggggggggw%&&&&&&&$7gggggggggggq%&&&&&&&&&&&&&&&&&&&&&&&&&&&hhh",
"hh&&=&&&&&&&&&&&&&&&&&&&&%&&==%=&&&&&&&&&&&%2ggggggggf>&&&&&&&&$qgggggggggs=&&&&&&&$wggggggggggg6$&&&&&&&&&&&%=&&&&&&&&&&&&&&&hh",
"hh&&%&&&&%&&&&&&&&&&%&&&&&&&%===&&&&&&%&&&&$7ggggggggs-%&&&&&&&$<gggggggggg<$&&%&&&%tggggggggggg3%&&&&%&&&&&&&&&&&&&&=%&=%&&&&hh",
"hh=&&=&&&&%&&&%&&&&%&&%&%=%=%=%=%&%===%=&&%$eggggggggu%&&&%&&&&%-sgggggggggq%&&&&&%=iggggggggggg,$%&&&%&=%&&%&&&%=%==&&==%==%=hh",
"hh%&%%%%%&&%%%&%%%&%%&&%=%=%=%=%=%=%%%=%%&=%iggggggggw$&&%&%&%&%$wggggggggga=%%%%&%-sggggggggggf:%&&%%&&%=%%&&%%=%%%%&%%%=%=%=hh",
"h%&%&%&%&%%&&%&&&&%&&%%&%==%%%==%%===%%=&%%-fgggggggg5$%%&&&%&%&$2gggggggggg,$&%&%%>gggggggggggs=%&%&%&%=%%&%&%&%==%&%&%%=%%%&&h",
"h&%&%&%&&%&%%&&%%&&%%&%&%=%=%=%%%=%%%=%%&%%,fgggggggg<$%&%&&&%&%%-dgggggggggq$%&&%$<gggggggggggu%%%&%&%&%=&%&%&%=%%=%&%&=%=%&%&h",
"h%%%%%%=%%&&%&&%%%%%%%&%%%=%%=%%%&&%%%%%%%$4ggggggggf;%%&%%%&%%%%$eggggggggga%%%%&#4gggggggggggr$%&%%&%%%%%&%%&&%%&%%&%%&%%%%%=h",
"h=%=&%%%&%%%%%%%%&%&&%&%%=%%%%%%%%%&%=%&%&#9gggggggga%%&$&%%%%&&%#3gggggggggg,%%%%#7ggggggggggg9#%&%%&%&%&%%&%%%&%%%%%&%%%&&%%%h",
"h%%%%%%%%%%%%&%%&%%%%%%%%%%=%%%%%%%%%&%%%%$tggggggggt$%%%%%&%%%%%%;fggggggggg9#%%&$wggggggggggg5$%%%%%&%%%%%%%%%%%%&%&%%%%%%%&%h",
"h%%%%=%%%&%%%%%%%%%&%%%%%%%%%%%%%%%%%%%%%%%agggggggg9#%%%%%%%%%%%%#tgggggggggi%%%%$tggggggggggg1$%%%%%%%%%&%&%%%%%%%%%%%%%%%%%%h",
"%%%%%%%%%%%%%%%%%%%%%%%%%%%%%%%%%%%%%%%%%$;fgggggggg4#%%%%%%%%%%%%$4gggggggggg:$%$%iggggggggggg>#%%%%%%%%%%%%%%%%%%%%%%%%%%%%%%%",
"%%%%%$%$%$%%%$%%%%%$$%%%$%$%$%%%%%%%%$%$%$,ggggggggg>$%%%%%$%%$%%$$;fggggggggg3#%$=dggggggggggd-$%%%$%%$$%%$$%%$$%%$$%%%%%%%$%$%",
"$%$%$%%%$%$%%%$%%%%$$%%$%$%%%%%%$%$%%%$%%#5ggggggggd*$%%%$%$%$%%%$%#tggggggggg9#%$:gggggggggggp&$%$$$%$%$%%%%%%%%$%%%%%%%%$$%$%%",
"%%$%%%$%%%$%$%%%$$%%%$%%%%%$%%%$%%$%$%%%%#wggggggggu$$%%%%%%%$%%%%%#6gggggggggr$%#,gggggggggggu$%%%%%%$%%%$%%$$%%%$%%$$%$%%%%%%$",
"$$%$$%%$$$%$$%%$$%%$%$$%$$$%$$$%$$%$$%%$$#ugggggggge#$$%$$$%$$$$$%$#>gggggggggu$$#3ggggggggggge#%$%$$%$%%$%$$%$%$%$$$$$%%$$$$%$$",
"$%$$$$$$$$$$$$$$$$$$$$%$%$$%$$%$$$$$$$$$$&sgggggggg6#$$$$$%$$$$$$$$$&dggggggggu#$@7ggggggggggg7@$$$%$$$$$$$$$$$$$$$$$$$$$$%%$$$%",
"$%$%$$%$%$$%$$$$$$%$$$$$$$%$$$$$%$$%$$$%#:ggggggggg1#$$$$$$$%$$%$$$$%uggggggggy#$#eggggggggggg4#$$$$$%$$$$$$$%$$$$%$%%%$$$$$%$$%",
"$$$$$$$$$$$$$$%$$$$$$%$$$$$$$$$$$$$$$$$$#<ggggggggf;#$$$$%$$$$$$%$$$$uggggggggr#$$tggggggggggg,#$$$$$$$$$%$$$$$$%$$$#%#$$$$$$$$$",
"$$$$$$$$$$$$%#$$$$$$$$$$$$$$$$$$$$$$$$$$#7gggggggga%$$$$$$$$$$$$$$$$%pgggggggg9@$$pggggggggggg;#$$$$$$$$$$$$$$$$$$$$$$$$$$$$$$$$",
"$$$$#$#$$#$$#%#$$$$##$$$$$$$$$$$$$$$$$$$@rgggggggfy#$#$#$$#$$$$$$#$#-fgggggggg3##&dggggggggggd&$$$#$$$$$$$$$$#$$#$$#$$#$$#$$$$$#",
"@#$$$$$$$#$$%#$##$$$$$#$$$#$#$$$$@$$$#$##pgggggggg9@#$$$$##$#$$#$##@,ggggggggg;##;gggggggggggi$$##$$$#$$$$#$$$##$$$#$$$#$$#$$$#$",
"$$#$$#$$$$$#%#$$$$#$$#$$$@$$#$#$$$#$$$##*dgggggggg4@#$#$$$$$#$$$$$$@rggggggggi$$#,gggggggggggt##$$$##%#@#$$$#$$$$#$$##$$#$$$#$#$",
"$$$$$#####$##$#####$$#$$$#$@$#$$$$###$#@>ggggggggg>#$##$##$###$###@:ggggggggg9@#@3gggggggggggq@####$$$$@$$#$$##$##$#$##$$##$##$#",
"$@$@#$$##$#$$##$#$$######$$$####@$##$###5ggggggggd&##$$##$$#$##$$#@tggggggggg;##@8ggggggggggg6@#$###$##$#####$######$#$$#$##$#$#",
"#$#$$##$#$#$############$$##$#$#$##$###@0ggggggggi##$##$#$#$#$$##+2gggggggggt@##@wggggggggggg3@####$##$#$#$###$#$$#$#$#$##$#$###",
"##$@########$####$##$##$@@$#############tgggggggge@#############@-sggggggggg>@###uggggggggggg>@$##$@$$#######$###########$#####$",
"h$###$@$###############################$sgggggggg7+#############@rgggggggggr@###$pggggggggggf-@#$##############################h",
"h@##$@#@#@########@##################@@-fgggggggg<+######@#####+3gggggggggf-@$#@&fggggggggggs%###############@#############@##%h",
"h##########@##############+#@#########@,ggggggggf;@#######@###+&dggggggggg6O###+:gggggggggggi#################@############@##$h",
"h####@#######@#################@######O6ggggggggs%#####@######+tgggggggggu#####+,gggggggggggr@###@##@###@############@@######$%h",
"h###@@$@##@#########@##@##+####+@#@#@#Owggggggggy###@@###@###O4gggggggggf;+#@@#+4ggggggggggg0+@@@##@#@#@#@#@#@##@##@#@##@#@#@#@h",
"h@@@@#@@#+@#@@@@+#++@@@@#+###+###@#@@#@igggggggg0O+@@#@@@#@#+*dggggggggg5O@#@#@O8ggggggggggg5O@##@@##@#@#@#@@#@#@@#@@#@#@@#@@##h",
"hh@##@@#@##@@@@@##@#@@#@##+#+#+#@#@#@@%dgggggggg4O+#@##@#@@@@ygggggggggt@@@@@##+eggggggggggg<+@@@@#@@@#@@#@@##@@#@@@#@@@#@@#@#hh",
"hh@#@#@@#@@#@##@#+#@##@#+###+###@@@#@+:fgggggggg>+#@#@@#@#@O5ggggggggff*+@#@@@@@uggggggggggg:+#@#@@@@#@#@@@#@@#@@@@#@@#@#@#@#$hh",
"hh#@@@@@@@@@@#@@@@@@@@@@@@@#@@@@@#@@@+<ggggggggf&+@@@@@@@@+*fggggggggg3O@@@#@@+$afgggggggggf&@@@@@@@@@@@@@@@@@@@@#@@@@@@@@@@@#hh",
"hh@@@@@@@@@@@@@@@@@@@@@@@@@+@@@@@@@@@o7ggggggggp@@@@@@@@#@+uggggggggge+@@@@@@@+&ffggggggggga#@@@@@@@@@@@@@@@@@@@@@@@@@@@@@@@@@hh",
"hhh@@@@@@@@@+#@@@@@@@@@@+#@@@@@@@@@@@+rggggggggrO@@@@@@@@O6fggggggggs%+@@@@@@@+;gggggggggggi@@@@@@@@@@+#@@@@@@@@@@@@@@@@@@@@#hhh",
"hhh@@+@@@@@@@+@@@@@@@@@@@+#+@@@+@@@@@#pgggggggg7O@@@@@@@O;fggggggggg,o@@@@@@@@O<gggggggggggeO@@@@@@@@@++@@@@@@@+@@@@@@@@@@@@@hhh",
"hhh@@@@+@@@@@+@@@@@@@@#+@@+#+@#+@@@@+%fgggggggg<O#@@@@#+@igggggggggw+@@@+@@@@@o5ggggggggggg7O@@@@@@@@@+@@+@@@@@@@@@@+@@@+@@@@hhh",
"hhhh@@@@@@+@+#@@+@@@@@+#@@#+@@+#@@@@+>ggggggggg;O@+@+++o7gggggggggs#+@@+@@+@@@O9ggggggggggg4o@@@@@@++@@@@@+@@@@@@@@@+@+@@@+@hhhh",
"hhhh+@+++@+@@++++@+@++++++++++#++@++X4ggggggggs$+@++@+o:fggggggggg,X@++@@+@+++Oeggggggggggf,O++++#+++@+@@++@+@+@+@+++@+@+@@+hhhh",
"hhhh@++@++@++@++@+@+++@+++#+++++@++@o9ggggggggu+++@@++#iggggggggg9o++@+++@++@++iggggggggggg;O@@+++++@+@@@+@+++@+++@+@+@+++@@hhhh",
"hhhhh@+@@+@+@+@@@+@@++@++@+@+@+@+@+++yggggggggqO@+@++o8gggggggggp#+++++@++@+@+#sggggggggggf%+++++++#+++#@+@+@++@@@+@+#++@+@hhhhh",
"hhhhh+++++++++++++++@+++++++++++++++#sgggggggg5o++++O1gggggggggg>o+++++++@++++%fggggggggggp@+++++++++++++++++++@@+++++++++@hhhhh",
"hhhhhh++++++@+@+++++++++++++++++oXoX%fgggggggg;XooOO*fggggggggg7X+@++++++++@+o;ggggggggggguO++++#++++++++++++++++++++++++@hhhhhh",
"hhhhhh++@++++++++++++++++++@++++<553qggggggggg63576o1gggggggggi+++++++++@+++@o<gggggggggggwo+++++++++++++++++@++++++++++++hhhhhh",
"hhhhhhh++++++++OO+++O+++++++++o#fgggggggggggggggggt.7ggggggggf;o++++++++++O++o5ggggggggggg6o@++++++++++++++++O++++++++++@hhhhhhh",
"hhhhhhh#O++O++++++++++++++++O+o;gggggggggggggggggg6.tgggggggg4X++++OO+++++++Oo9ggggggggggg3o++++++O+++++++O++++++++++O+O+hhhhhhh",
"hhhhhhhh+++++++O+++++++O+++O++o,gggggggggggggggggg,OagggggggqOO+++O++O+O+++++otggggggggggg>o+++O++O+O+++++++++++++O+++++hhhhhhhh",
"hhhhhhhhO++O+O+++O+O+O++O+O+++o6gggggggggggggggggg&%fggggggt+O++O+++++++O+O+O+iggggggggggg-oo++++++++++OO+O++oO+O+O++O++hhhhhhhh",
"hhhhhhhhh+OO+O+O++O++O++O++O++Xrgggggggggggggggggs+>ggggggr+O++OO++OO++O+OO+O#sggggggggggd$OO++OOOO++O+OO+OO+OO++O++o+Ohhhhhhhhh",
"hhhhhhhhh++++OO++OO++OO++O+OOO+pgggggggggggggggggu.5ggggg8Oo+O+O+O+++O++O+++o%gggggggggggpOO+O+++O+OO+O+++++++++O++O++Ohhhhhhhhh",
"hhhhhhhhhhO+OO++OOO+O++OOO++OO$fggggggggggggggggg9 egggu>XO+OO++OOOOOO+O+OOOX:gggggggggggtoOOO+OOOO+O++OOOOOO+OOO+OO+Ohhhhhhhhhh",
"hhhhhhhhhhhO+OOO++OO+OOOO+OOOo>gggggggggggggggggg2Xpfr,+XOOOO+OOO+O+O+O++O+OX1gggggggggggwX+O+OOO++OOO+OO+O+OO+OOOO++hhhhhhhhhhh",
"hhhhhhhhhhh+O+O+O+O+OOO+O+O++X,uuuuuuuuyuuuuuuuur=+>%XXO+OO+O+O+OO+OO+OOO+OOO*uuuyuuuuuuu:o+OO++O++O+O+O+O+O+OO++O+OOhhhhhhhhhhh",
"hhhhhhhhhhhhOOOOOOOOOOO+OOOOOO+OOOoOOOOO+ooOOOOooOOoX+OOOOOOOOOO+OOO+OOOOOOOOOOOo+OoOOo+oo+o+OOOOOOOOOOOOOOOOOOOOOO+hhhhhhhhhhhh",
"hhhhhhhhhhhhh++oOOO++OOOOOOOOOOOOOOOOOOOoo+OOOOO+O+oo++o+OOOO+OOOOO+OOO+OO+OOOOOOOOOOOOOo+oOOOOOOOO+OO+O+OOOOOOOOOOhhhhhhhhhhhhh",
"hhhhhhhhhhhhhhOoOOOOOOOOOO+OOOOOOOOOOOOOOOoOOOOOOOOOOOOOOOOOOOOOOOOOOOOOOOOOOOOOOOOOOOOOOOOOOOOOOOOOOOOOOOOOO+OOO+hhhhhhhhhhhhhh",
"hhhhhhhhhhhhhh++OOOOOOOOOOOOOOOOOOOOOOOOOOOOOOOOOOOOOOOOOOOOOOOOOOOOOOOOOOOOOOOOO++ooo+oOOOOOOOOOOOOoOOOOOOOOOOOO+hhhhhhhhhhhhhh",
"hhhhhhhhhhhhhhhOOOOOOOOOOOOOOOOOOXOOOOOXOOOOOOOOOOOOOOOOOOOOOOOOOOOOOOOOOOOOOOOOooOO+oOOOOOOOOOoOOOO+oOOOOOOOOOOohhhhhhhhhhhhhhh",
"hhhhhhhhhhhhhhhhOXOOOXOOOOOOOOOOOOOOOOOOOOoOOoOOOoOoOOXOOOOOOXOOOOOOXOOOXOOOOOOOOOooo+o+OooOOOoOOoOOOOOooOOoOOO+hhhhhhhhhhhhhhhh",
"hhhhhhhhhhhhhhhhhOOOOOOOOOOOOOXOOOOOOOOOoOOOOOoOOOOOOOOOOOOXOOOOOOOOOOOOOOOOOOOXoO+oooooOOOOOOOOOOOOOoOoOOOOOOOhhhhhhhhhhhhhhhhh",
"hhhhhhhhhhhhhhhhhhOXOXOOOXOOXXOOoOoXOooOooOoOooOooOOXOOOXOXOOXOXXOOXOOXOOooooOOoooOooooOooOOOoooooOooOo+oOOoOohhhhhhhhhhhhhhhhhh",
"hhhhhhhhhhhhhhhhhhhOOXOXOOXXOOOXoOoOooOoOoOoooOoXOXOOoXOXOOOXOOXOOXOXOXOooOooooOOOoooOooOoooooOOoOoooooooooOOhhhhhhhhhhhhhhhhhhh",
"hhhhhhhhhhhhhhhhhhhhOOXOXOOOXOOXoooooOOooooOoOooOOoOooOoOOXXOOOOOXXOOOOOoOOoOooooooOoOOooOoOoOooooOOOoooOOO+hhhhhhhhhhhhhhhhhhhh",
"hhhhhhhhhhhhhhhhhhhhhXOOXOXOOOXOOoOOooooOOoooOooOXOXoOXOOXOOOXXOOOOOXXOXoOooOoOooOoOoooOoOooooooOoooooooooohhhhhhhhhhhhhhhhhhhhh",
"hhhhhhhhhhhhhhhhhhhhhhoooooooooooooooooooooooooooooooooooooooXooXXXOoooooooooooooooooooooooooooooooooooooohhhhhhhhhhhhhhhhhhhhhh",
"hhhhhhhhhhhhhhhhhhhhhhhoooooooooooooooooooooo.ooooooooooooooooooXOOXooooooooooooooooooooooooooooooooooooohhhhhhhhhhhhhhhhhhhhhhh",
"hhhhhhhhhhhhhhhhhhhhhhhhhooooXXooooooooooX.oooooXooo.ooooooXooooXXXXoXooooXXoooX.oooo.o.oooooooooooXooohhhhhhhhhhhhhhhhhhhhhhhhh",
"hhhhhhhhhhhhhhhhhhhhhhhhhhooooXoo.o..oXoXoooooo.ooXoooo.oXoXooooOOXOoXooXoooXXooooooooooo.ooo.o.oXoooohhhhhhhhhhhhhhhhhhhhhhhhhh",
"hhhhhhhhhhhhhhhhhhhhhhhhhhhoXooooooooXooooooooooooo.o.ooX.ooXXooXXXXoXXooXoXooXoooo.XooXXoooo.oooXoXohhhhhhhhhhhhhhhhhhhhhhhhhhh",
"hhhhhhhhhhhhhhhhhhhhhhhhhhhhhooXooooXXo.oX.oo.ooo.oooooooo.oooXXXXXXXOooooXoXoXooooooXXX.o.oooooXoohhhhhhhhhhhhhhhhhhhhhhhhhhhhh",
"hhhhhhhhhhhhhhhhhhhhhhhhhhhhhhXoXXoXXoooooooooo..o.o.ooo.oooo.o.XXXOoooooooXXooXoXXoXXoooooooo.ooohhhhhhhhhhhhhhhhhhhhhhhhhhhhhh",
"hhhhhhhhhhhhhhhhhhhhhhhhhhhhhhhhoXXXoXXX.XXX.o.ooo.ooo..ooo.oo.XOXXXXXXXXXXoXXoXXoXXXoXXo..o.oo.hhhhhhhhhhhhhhhhhhhhhhhhhhhhhhhh",
"hhhhhhhhhhhhhhhhhhhhhhhhhhhhhhhhhhoooXoooXXXoXXoo.XXXXoXXXXXXXXXXXXXXXXXXXXXXXXXXXXXXXXXXooXoohhhhhhhhhhhhhhhhhhhhhhhhhhhhhhhhhh",
"hhhhhhhhhhhhhhhhhhhhhhhhhhhhhhhhhhhhX...XXXX.XX.XXX.XXXX.XXXXXXXXXXXXXXXXX.XXXXXXXXXXXXXX..ohhhhhhhhhhhhhhhhhhhhhhhhhhhhhhhhhhhh",
"hhhhhhhhhhhhhhhhhhhhhhhhhhhhhhhhhhhhhhooX.XXXXXX.XXoXXXXXXXXXXXXXXX.XX.XXXXXXXXXXXXXXXXXXXhhhhhhhhhhhhhhhhhhhhhhhhhhhhhhhhhhhhhh",
"hhhhhhhhhhhhhhhhhhhhhhhhhhhhhhhhhhhhhhhhXX.XXX.oXXX.X.XXXXXXXXXXXXXXXXXXXXXXXXXXXXXXXXXXhhhhhhhhhhhhhhhhhhhhhhhhhhhhhhhhhhhhhhhh",
"hhhhhhhhhhhhhhhhhhhhhhhhhhhhhhhhhhhhhhhhhhhoo.X.XXo.XXXXXXXXXX.XXXX.XX.XXXXXXXXXXXXXXhhhhhhhhhhhhhhhhhhhhhhhhhhhhhhhhhhhhhhhhhhh",
"hhhhhhhhhhhhhhhhhhhhhhhhhhhhhhhhhhhhhhhhhhhhhhXX.X.XX.XXXXXXXXo.XXXXXXXXXXXXXXX.XXhhhhhhhhhhhhhhhhhhhhhhhhhhhhhhhhhhhhhhhhhhhhhh",
"hhhhhhhhhhhhhhhhhhhhhhhhhhhhhhhhhhhhhhhhhhhhhhhhhho..o.X.o..XX..XXXXXXXXXXXXXXhhhhhhhhhhhhhhhhhhhhhhhhhhhhhhhhhhhhhhhhhhhhhhhhhh",
"hhhhhhhhhhhhhhhhhhhhhhhhhhhhhhhhhhhhhhhhhhhhhhhhhhhhhhhh....XX......XXXXhhhhhhhhhhhhhhhhhhhhhhhhhhhhhhhhhhhhhhhhhhhhhhhhhhhhhhhh"
};
