/* XPM */
static char *bitcoin16_xpm[] = {
/* width height num_colors chars_per_pixel */
"    16    16      256            2",
/* colors */
"`` c #ffffff",
"`. c #f2eeee",
"`# c #a96464",
"`a c #8c1d1c",
"`b c #8c1e1c",
"`c c #a73d3b",
"`d c #871c1a",
"`e c #9b433f",
"`f c #e6c6be",
"`g c #fafafa",
"`h c #bb9594",
"`i c #9f3f3d",
"`j c #8e0706",
"`k c #810405",
"`l c #9f0206",
"`m c #b50d0e",
"`n c #930c0c",
"`o c #7b0303",
"`p c #880908",
"`q c #ba6f69",
"`r c #f0d9d4",
"`s c #f9f9f9",
"`t c #a15e5e",
"`u c #7e0000",
"`v c #9a0206",
"`w c #bc040b",
"`x c #b2080c",
"`y c #b70509",
"`z c #ae0002",
"`A c #b5050a",
"`B c #b5080b",
"`C c #b00e0f",
"`D c #830605",
"`E c #7a0f0d",
"`F c #f1d7d0",
"`G c #d1b7b7",
"`H c #870705",
"`I c #8c0407",
"`J c #bb0c0e",
"`K c #a20004",
"`L c #9c0306",
"`M c #960809",
"`N c #920d0c",
"`O c #960e0d",
"`P c #ad0507",
"`Q c #b00002",
"`R c #ac1012",
"`S c #750302",
"`T c #a3443f",
"`U c #f0eeee",
"`V c #a14344",
"`W c #a60a0b",
"`X c #b80509",
"`Y c #a80207",
"`Z c #aa0005",
"`0 c #af0004",
"`1 c #ab0105",
"`2 c #a20406",
"`3 c #8b0d0c",
"`4 c #811916",
"`5 c #9a0e0e",
"`6 c #b10206",
"`7 c #ab0f0f",
"`8 c #960808",
".` c #e3bcb5",
".. c #af8b8a",
".# c #7f0202",
".a c #a60b0c",
".b c #b40104",
".c c #b10004",
".d c #b00004",
".e c #b10003",
".f c #b00406",
".g c #920c0c",
".h c #761e1b",
".i c #9d0e0e",
".j c #b40206",
".k c #8a0808",
".l c #821211",
".m c #964c4a",
".n c #790101",
".o c #b50c0f",
".p c #b40306",
".q c #af0003",
".r c #aa0205",
".s c #a50f14",
".t c #a01418",
".u c #af0708",
".v c #801010",
".w c #811d1b",
".x c #b0080b",
".y c #9f0d0e",
".z c #6b0000",
".A c #9d6161",
".B c #a00a0b",
".C c #b60709",
".D c #ae0003",
".E c #aa090b",
".F c #bb1817",
".G c #b61818",
".H c #aa0307",
".I c #900709",
".J c #76181a",
".K c #a30a0b",
".L c #ae0b0d",
".M c #96110f",
".N c #a16968",
".O c #960a0b",
".P c #b80b0c",
".Q c #ac0003",
".R c #ab1113",
".S c #cb1d1a",
".T c #c31c17",
".U c #af0104",
".V c #ad0305",
".W c #91090b",
".X c #751216",
".Y c #a30c0c",
".Z c #b00709",
".0 c #8e0e0c",
".1 c #974f4d",
".2 c #780303",
".3 c #b50e11",
".4 c #b40307",
".5 c #a50206",
".6 c #aa1417",
".7 c #bd1818",
".8 c #ad0a0b",
"#` c #a60607",
"#. c #850b0f",
"## c #7a0f15",
"#a c #ac0b0e",
"#b c #a3090c",
"#c c #6f0000",
"#d c #ad8887",
"#e c #830806",
"#f c #a50d0e",
"#g c #b10002",
"#h c #a10206",
"#i c #971016",
"#j c #a7141a",
"#k c #a41213",
"#l c #a5070b",
"#m c #8e0d11",
"#n c #780d14",
"#o c #8d0b0f",
"#p c #b50306",
"#q c #810b0a",
"#r c #eae9e9",
"#s c #953b3a",
"#t c #a2090c",
"#u c #ba0d0e",
"#v c #86090f",
"#w c #8d0f18",
"#x c #911017",
"#y c #860f16",
"#z c #7a0d15",
"#A c #830a10",
"#B c #b3070b",
"#C c #a2100f",
"#D c #b9908f",
"#E c #c3afae",
"#F c #880907",
"#G c #860609",
"#H c #be1012",
"#I c #b30002",
"#J c #a40003",
"#K c #82070c",
"#L c #7a0c13",
"#M c #800c10",
"#N c #92050a",
"#O c #ae0004",
"#P c #b20a0e",
"#Q c #7d0102",
"#R c #94302e",
"#S c #f5f4f4",
"#T c #984e4c",
"#U c #800604",
"#V c #920a0a",
"#W c #b80c0d",
"#X c #bc090d",
"#Y c #ba0909",
"#Z c #a50204",
"#0 c #b1090d",
"#1 c #bc090c",
"#2 c #be040b",
"#3 c #8e0606",
"#4 c #820101",
"#5 c #c9abaa",
"#6 c #f1efef",
"#7 c #aa7f7e",
"#8 c #9c2929",
"a` c #8d0807",
"a. c #7b0305",
"a# c #930a0b",
"aa c #b50b0c",
"ab c #920206",
"ac c #800203",
"ad c #8e0305",
"ae c #a75251",
"af c #d1b5b5",
"ag c #e5e0e0",
"ah c #9b5e5c",
"ai c #96211f",
"aj c #941e1e",
"ak c #9d3a39",
"al c #921c1a",
"am c #993434",
"an c #bd9e9d",
"ao c #000000",
"ap c #000000",
"aq c #000000",
"ar c #000000",
"as c #000000",
"at c #000000",
"au c #000000",
"av c #000000",
"aw c #000000",
"ax c #000000",
"ay c #000000",
"az c #000000",
"aA c #000000",
"aB c #000000",
"aC c #000000",
"aD c #000000",
"aE c #000000",
"aF c #000000",
"aG c #000000",
"aH c #000000",
"aI c #000000",
"aJ c #000000",
"aK c #000000",
"aL c #000000",
"aM c #000000",
"aN c #000000",
"aO c #000000",
"aP c #000000",
"aQ c #000000",
"aR c #000000",
"aS c #000000",
"aT c #000000",
"aU c #000000",
"aV c #000000",
"aW c #000000",
"aX c #000000",
"aY c #000000",
"aZ c #000000",
"a0 c #000000",
"a1 c #000000",
"a2 c #000000",
"a3 c #000000",
"a4 c #000000",
"a5 c #000000",
"a6 c #000000",
"a7 c #000000",
"a8 c #000000",
/* pixels */
"`````````.`#`a`b`c`d`e`f````````",
"`````g`h`i`j`k`l`m`n`o`p`q`r````",
"```s`t`u`v`w`x`y`z`A`B`C`D`E`F``",
"```G`H`I`J`K`L`M`N`O`P`Q`R`S`T``",
"`U`V`W`X`Y`Z`0`1`2`3`4`5`6`7`8.`",
"...#.a.b`0.c.d.e.c.f.g.h.i.j.k.l",
".m.n.o.p.q.d.e.r.s.t.u.v.w.x.y.z",
".A.B.C.D.d.D.E.F.G.H.e.I.J.K.L.M",
".N.O.P.q.d.Q.R.S.T.U.V.W.X.Y.Z.0",
".1.2.3.4.e.5.6.7.G.8#`#.###a#b#c",
"#d#e#f.b#g#h#i#j#k#l#m#n#o#p`n#q",
"#r#s#t#u#p.Q#v#w#x#y#z#A#B`A#C#D",
"``#E#F#G#H#I#J#K#L#M#N#O#P#Q#R``",
"``#S#T#U#V#W#X#Y#Z#0#1#2#3#4#5``",
"````#6#7#8a`a.a#aaabacadaeaf````",
"````````agahaiajakalaman````````"
};
