/* XPM */
static char *Free_Converter_com_crowncoin16_54375411[] = {
/* columns rows colors chars-per-pixel */
"16 16 102 2 ",
"   c #7955D6",
".  c #7A55D7",
"X  c #7A56D7",
"o  c #7C58D7",
"O  c #7D59D7",
"+  c #7D5AD8",
"@  c #7E5AD8",
"#  c #7E5BD8",
"$  c #7F5CD8",
"%  c #7F5DD8",
"&  c #805DD8",
"*  c #805DD9",
"=  c #805ED8",
"-  c #815FD9",
";  c #8260D9",
":  c #8361D9",
">  c #8462DA",
",  c #8463DA",
"<  c #8766DB",
"1  c #8767DB",
"2  c #8868DB",
"3  c #8969DB",
"4  c #8A6ADB",
"5  c #8A6ADC",
"6  c #8A6BDC",
"7  c #8C6CDC",
"8  c #8C6DDC",
"9  c #8D6EDC",
"0  c #8E6FDC",
"q  c #8E6FDD",
"w  c #8F71DD",
"e  c #8F71DE",
"r  c #9072DE",
"t  c #9173DE",
"y  c #9274DE",
"u  c #9376DE",
"i  c #9477DF",
"p  c #9577DF",
"a  c #9478DF",
"s  c #967ADF",
"d  c #987BDF",
"f  c #987CE0",
"g  c #997DE0",
"h  c #9A7EE0",
"j  c #9A7FE0",
"k  c #9A7EE1",
"l  c #9A7FE1",
"z  c #9B7FE1",
"x  c #9B80E1",
"c  c #9C81E1",
"v  c #9C82E1",
"b  c #9F84E2",
"n  c #A187E2",
"m  c #A289E3",
"M  c #A38AE3",
"N  c #A38BE3",
"B  c #A58CE4",
"V  c #A890E4",
"C  c #AB93E5",
"Z  c #AF9AE7",
"A  c #B09BE7",
"S  c #B19CE7",
"D  c #B6A2E9",
"F  c #BAA7EA",
"G  c #BCAAEB",
"H  c #BDABEB",
"J  c #C0AFEC",
"K  c #C1B0EC",
"L  c #C2B0EC",
"P  c #C8B9EF",
"I  c #CABBEF",
"U  c #CBBCEF",
"Y  c #CDBFEF",
"T  c #CFC2F0",
"R  c #D0C3F1",
"E  c #D1C4F1",
"W  c #D2C6F1",
"Q  c #D3C6F2",
"!  c #D4C8F2",
"~  c #D5C9F2",
"^  c #DBD1F4",
"/  c #E0D7F5",
"(  c #E0D8F6",
")  c #E1D9F6",
"_  c #E3DCF7",
"`  c #E4DDF7",
"'  c #E5DDF7",
"]  c #E8E2F8",
"[  c #EAE4F8",
"{  c #ECE6F9",
"}  c #EDE8FA",
"|  c #EFEBFA",
" . c #F1EDFB",
".. c #F1EEFB",
"X. c #F2EFFB",
"o. c #F8F6FD",
"O. c #FAF9FE",
"+. c #FBF9FE",
"@. c #FCFCFE",
"#. c #FEFEFF",
"$. c gray100",
"%. c None",
/* pixels */
"%.%.%.%.%.m m m m m m %.%.%.%.%.",
"%.%.%.n n m n n n n n n n %.%.%.",
"%.%.b b c c h h c n c n b b %.%.",
"%.c c c h S J H B z h s x c c %.",
"%.h h h i ~ $.] ] c N J m s h %.",
"s s s s t H } m $.Z H $.V i s s ",
"i i i i 9 T ( 4 ` W P @.h t s i ",
"t t t t 7 _ Y : J } ^  .i e t t ",
"9 e 9 7 t  .D $ I _ ` ` 4 9 9 9 ",
"4 5 5 5 f o.h h @.V | W > 5 5 7 ",
"< < < & m  .5 ] I 5 $.J & < < < ",
"%.< : < ( @.! ] & c $.Z $ > > %.",
"%.: $ 9 W R F 9 X s T i # : : %.",
"%.%.& $ .   X o & #   # & $ %.%.",
"%.%.%.# # # # # # # # o # %.%.%.",
"%.%.%.%.%.# X X # X # %.%.%.%.%."
};
